<svg xmlns="http://www.w3.org/2000/svg" xmlns:xlink="http://www.w3.org/1999/xlink" width="512" height="512" x="0" y="0" viewBox="0 0 64 64" style="enable-background:new 0 0 512 512" xml:space="preserve" class=""><g><path d="M21.36 26.535c1.199-.228 2.407.18 3.595-.054a.675.675 0 0 0 .16-1.22 5.154 5.154 0 0 0-2.432-.614c.374-2.702-2.541-2.418-1.838.182-2.363.385-4.29 3.156-2.826 5.363 1.065 1.59 2.943 1.23 4.565 1.109 1.54-.263 2.594.701 1.989 2.243-1.056 1.96-3.643 1.677-5.497 1.317a1.132 1.132 0 0 0-1.404.936c-.116 1.631 1.894 1.283 2.99 1.309-.283.787.37 2.037 1.299 1.568.675-.343.68-1.145.656-1.804 5.196-1.043 5.211-8.171-.748-7.186a3.806 3.806 0 0 1-2.046-.077 1.305 1.305 0 0 1-.506-1.637 2.556 2.556 0 0 1 2.043-1.435z" fill="#2a1e2a" opacity="1" data-original="#000000"></path><path d="M26.294 40.992a11.701 11.701 0 0 0 6.847-11.336 10.244 10.244 0 0 0-9.195-9.474c-1.118-.073-1.105 1.649 0 1.734 9.095 1.039 9.8 12.37 2.626 16.705-3.176 1.959-7.992 2.651-11.181.329-4.576-3.521-4.793-14.005.959-16.523 1.983-.906 4.265-.843 6.35-1.392a.272.272 0 0 0 0-.52 9.305 9.305 0 0 0-11.434 5.033 14.453 14.453 0 0 0-.672 7.669c.96 8.478 8.51 11.056 15.7 7.775z" fill="#2a1e2a" opacity="1" data-original="#000000"></path><path d="M18.75 45.033a.586.586 0 0 0 0 1.172c11.574.24 26.001-5.046 28.06-17.848.714.787 1.18 1.982 2.187 2.412.943.199 1.188-.94.612-1.52a50.063 50.063 0 0 0-2.565-3.123 1.094 1.094 0 0 0-1.598-1.283.916.916 0 0 0-.734.259 31.84 31.84 0 0 0-2.965 3.255c-.332.397-.838.83-.65 1.404.893 1.777 2.635-1.062 3.483-1.674-2.058 11.65-15.367 16.184-25.83 16.946z" fill="#2a1e2a" opacity="1" data-original="#000000"></path><path d="M60.148 7.49a2.402 2.402 0 0 0-1.632.06c-1.73-3.878-6.92-3.63-10.579-3.488l-6.724.05c-10.21.075-20.422.051-30.631.202a1.006 1.006 0 0 0-.847 1.502 5.26 5.26 0 0 0-3.621 2.12c-1.54-1.067-3.834 1.08-3.855 2.688a2.258 2.258 0 0 0 2.635 2.503 3.254 3.254 0 0 0 2.212 2.59c-.186 8.25-.465 16.47-.432 24.723-.594 8.763.782 11.835 10.166 11.372q7.23-.057 14.458-.152a18.624 18.624 0 0 0 .267 2.868c-4.148 1.07-1.819 6.952 1.969 5.108 2.37-1.039 2.407-5.732-.596-5.735a19.668 19.668 0 0 0-.247-2.259c5.037-.075 10.075-.107 15.112-.2 5.178.123 8.711-2.385 8.494-7.854-.093-4.6-.378-9.185-.36-13.792.02-4.697.12-9.394.22-14.09a1.02 1.02 0 0 0-.17-.589 4.35 4.35 0 0 0 2.457-2.34c3.188.879 4.726-4.074 1.704-5.286zM4.824 11.506c-1.857.507-1.953-2.24-.154-2.34-.164.03.086-.01.12-.017.137-.03.27-.077.408-.102.04-.008.258-.032.117-.021l.132-.011a6.947 6.947 0 0 0-.623 2.49zm27.453 47.094a1.59 1.59 0 0 1 0-3.177 1.59 1.59 0 0 1 0 3.177zM53.93 15.706c-.24 7.578-.44 15.157-.277 22.74.037 1.714.143 3.428.161 5.143.017 1.542-.074 3.321-1.442 4.317-2.6 1.595-5.901.924-8.809 1.111-7.506.1-15.012.19-22.518.325-3.207-.09-6.509.504-9.653-.227-3.339-1.014-2.5-5.465-2.537-8.183-.115-8.36-.53-16.68-.868-25.03 15.329-.002 30.653-.19 45.99-.394a1.069 1.069 0 0 0-.047.198zm-.092-2.37c-15.181.236-30.39.66-45.56 1.052-3.092-.194-2.995-4.835-.917-6.298a7.961 7.961 0 0 1 2.576-.716.715.715 0 0 0 .483-1.076c11.331.03 22.69-.312 34.03-.4 3.54.117 7.409-.651 10.74.865 2.993 1.49 2.186 6.6-1.352 6.573zm6.783-3.388a1.466 1.466 0 0 1-1.7 1.369 6.21 6.21 0 0 0-.204-3.28 1.752 1.752 0 0 1 1.904 1.91z" fill="#2a1e2a" opacity="1" data-original="#000000"></path></g></svg>