<svg xmlns="http://www.w3.org/2000/svg" xmlns:xlink="http://www.w3.org/1999/xlink" width="512" height="512" x="0" y="0" viewBox="0 0 68 68" style="enable-background:new 0 0 512 512" xml:space="preserve" class=""><g><path d="M63.6 12.8c-3.6-.1-6.6-1.9-9.4-4-1.8-1.3-3.7-2.7-6-3-2.5-.3-5.2.7-7.3 2.8-1 .9-3.1 3-4.6 5.1v-2.5c1.7-.9 2.9-2.6 2.9-4.7 0-2.9-2.4-5.3-5.3-5.3s-5.3 2.4-5.3 5.3c0 2.1 1.3 4 3.1 4.8v1.4c-2-2.1-5-4.1-6.4-5-2.6-1.6-5.4-2.1-7.8-1.3C12.7 8 10.6 14.5 4 16.2c-.8.2-1.4.9-1.5 1.7s.3 1.6 1.1 2c4.4 2.3 8.1 3.6 11.8 4.1 2.2.3 4.2.3 6.3 0-3 1.4-4.3 6.4.2 8.9 1.9 1 4 1.4 6 1.6-5.6 2-5.5 6.8-1.7 9.5 1.6 1.1 3.4 1.8 5.2 2.5v.2c-1.5 1-2.7 2.3-3.5 3.8-1.4 2.8-1.3 7.3 1.5 9-1.5 1-2.6 2.8-3 4.8 0 .2 0 .5.2.6-2.2.1-3.6.3-3.6.5 0 1 22.8 1.4 22.8.4 0-.3-1.9-.5-4.8-.7-.7-2.1-1.4-4.3-3.4-5.4 2-1 2.9-4.4 2.5-6.8-.4-2.3-1.8-4.4-3.8-5.8 7.3-2.1 8.4-7.5 5.8-10.4-.2-.2-.3-.5-.5-.7 1.2-.2 2.8-1 3.8-1.7 3.8-2.6 3.3-7.7.5-9.7 5.6.9 9.7-1.1 14.4-4.7 1.5-1.2 2.9-2.2 3.9-3.8.1 0 .1-.1.2-.1 1.7-.9.9-3.1-.8-3.2zM30.1 6.6c0-2.1 1.7-3.8 3.8-3.8s3.8 1.7 3.8 3.8-1.7 3.8-3.8 3.8-3.8-1.7-3.8-3.8zm4.6 5.2v47.4c-.5-.1-1-.1-1.7-.1.1-15.3.2-32.4.3-47.2.4 0 .5 0 1.4-.1zm-19 11c-3.5-.5-7-1.8-11.3-4-.3-.1-.3-.4-.3-.5.1-.7.7-.3 2.9-1.4 5.4-2.7 7.4-7.7 11-8.9 1.9-.6 4.3-.2 6.5 1.1 5.9 3.8 6.4 5.5 7.2 5.6v3.7c-5.4 4.1-10.9 5.2-16 4.4zm7 9c-4-2.2-2-7.3 1.9-6.4 1.2.3 2.3 1 3.3 1.6.4.2.8.1 1-.2.2-.4.1-.8-.2-1-1.5-.9-3.1-1.9-4.9-2 2.9-.7 5.6-1.9 7.7-3.6l-.1 13.1c-2.9 0-5.9 0-8.7-1.5zM27.2 43c-3.3-2.3-3-6.6 4.4-7.5l-.1 9.6c-1.5-.6-3-1.2-4.3-2.1zm2.2 8.4c.5-1 1.2-1.9 2.1-2.6l-.1 10c-.7-.1-1.1-.4-1.5-.8-1.5-1.4-1.5-4.6-.5-6.6zm9.2 13.8c-3.4-.1-7.4-.2-10.7-.1.2-.3.6-4.1 3.9-4.7 1.3.2 2.8 0 3.9.5 2.6 1.1 2.7 3.9 2.9 4.3zm-1.1-13.8c1.1 2.2 1 5.9-1.3 7v-8.8c.5.5.9 1.1 1.3 1.8zm2.3-8.5c-1.2.8-2.3 1.4-3.6 1.9v-9.6c4.5.1 8 4.6 3.6 7.7zm4.5-10.5c-2.6 1.3-7.3 1.5-8.1 1.4V20.4c2.9 1.7 4.5 2.7 6.7 3.5-2.1.1-3.1 1.1-5 2.2-.4.2-.5.7-.3 1s.7.5 1 .3c1.3-.7 4.5-3.3 6.9-1.3.8.7 2.4 4.4-1.2 6.3zM63.8 15c-17.7 14.3-25.2 3.7-27.6 3.8v-2.4c.4-.3.9-2.2 5.6-6.7 1.8-1.8 4.1-2.7 6.1-2.4 2.3.3 4.3 2 6.2 3.3 6.7 4.7 9.5 3.1 9.8 3.9 0 .2 0 .4-.1.5z" fill="#2a1e2a" opacity="1" data-original="#000000"></path><path d="M51.7 13.3c-3.7-2-8.3-1.4-11.3 1.5-.3.3-.3.8 0 1.1s.8.3 1.1 0c2.5-2.4 6.4-3 9.5-1.3.4.2.8.1 1-.3s.1-.8-.3-1zM17.7 12.7c-.4.1-.7.4-.6.8s.4.7.8.6c2.4-.3 5.2-.7 7.2.7.3.2.8.2 1-.2.2-.3.2-.8-.2-1-2.4-1.7-5.4-1.3-8.2-.9z" fill="#2a1e2a" opacity="1" data-original="#000000"></path></g></svg>