<svg xmlns="http://www.w3.org/2000/svg" xmlns:xlink="http://www.w3.org/1999/xlink" width="512" height="512" x="0" y="0" viewBox="0 0 68 68" style="enable-background:new 0 0 512 512" xml:space="preserve" class=""><g><path d="M29.4 59.1c11.1 0 20.3-9 20.3-20.3 0-11.2-9.1-20.3-20.3-20.3S9.1 27.6 9.1 38.8s9.1 20.3 20.3 20.3zM13.8 28.2l.9.9c.3.3.8.3 1.1 0s.3-.8 0-1.1l-1-1h-.1c3.3-4.1 8.2-6.8 13.8-7v.7c0 .4.3.8.8.8s.8-.3.8-.8V20c5 .1 9.6 2.2 12.9 5.6l-.7.7c-.3.3-.3.8 0 1.1s.8.3 1.1 0l.6-.6c2.7 3.2 4.3 7.2 4.4 11.6H47c-.4 0-.8.3-.8.8s.3.8.8.8h1.3c-.2 4.4-2 8.5-4.8 11.6 0-.1-.1-.2-.2-.3l-.8-.8c-.3-.3-.8-.3-1.1 0s-.3.8 0 1.1l.8.8c.1.1.2.1.3.2-3.1 3-7.3 5-12 5.3v-1.1c0-.4-.3-.8-.8-.8s-.7 0-.7.4V57.6c-4.6-.1-8.8-1.8-12-4.7l.7-.7c.3-.3.3-.8 0-1.1s-.8-.3-1.1 0l-.7.7c-2.9-3-4.8-6.9-5.3-11.3h2.5c.4 0 .8-.3.8-.8s-.3-.8-.8-.8h-2.6v-.3c.1-3.7 1.2-7.4 3.3-10.4z" fill="#2a1e2a" opacity="1" data-original="#000000"></path><path d="M21.8 47.3c.6-.1 1.4-.4 2.8-.8.6-.2.7-.9.3-1.3l-.5-.5 4.8-4.8h.3c1 0 1.9-.8 1.9-1.9 0-.6-.3-1.2-.8-1.5V26.1h.7c.7 0 .9-.7.6-1.2l-1.6-2.4c-.3-.5-1.1-.4-1.3.1-.3.7-.9 1.5-1.3 2.4-.2.5.1 1 .6 1.1h.7v10.2c-.8.2-1.4.9-1.4 1.8 0 .3.1.7.3.9l-4.7 4.7-.5-.4c-.4-.4-1.1-.1-1.2.4-.1.8-.4 1.7-.6 2.6 0 .7.4 1.1.9 1zM50.2 19.2l5.7-4.4c.3-.3.4-.7.1-1.1-.3-.3-.7-.4-1.1-.1L50.5 17V9.9c0-.5-.5-.9-1-.7-2.4.9-4.5 2.4-6.2 4.3-.3.3-.2.8.1 1.1s.8.2 1.1-.1c1.3-1.4 2.8-2.6 4.6-3.5v7.5c-.1.8.6 1.1 1.1.7zM60.1 7.7l-1.5 1.2.3-2.7c.1-.6-.5-1-1.1-.8l-2.9 1.4c-.4.2-.5.6-.4 1 .2.4.6.5 1 .4l1.7-.8-.4 3.2c-.1.7.7 1.1 1.2.7l3-2.4c.3-.3.4-.7.1-1.1-.2-.3-.7-.3-1-.1zM63.3 1.8l-2.2 1.6c-.3.2-.4.7-.2 1s.7.4 1 .2l.9-.6-.2 1.9c-.1.7.7 1.1 1.2.7L66 4.8c.3-.3.4-.7.1-1.1-.3-.3-.7-.4-1.1-.1l-.7.6.2-1.7c.1-.7-.7-1.1-1.2-.7z" fill="#2a1e2a" opacity="1" data-original="#000000"></path><path d="M10 59.3c6.6 6.2 16.6 8.6 25.3 6.1 6.3-1.8 11.7-6.1 15.2-11.6 3-4.2 4.8-9.4 4.8-15 0-14.3-11.6-25.9-25.9-25.9-4.5 0-8.7 1.1-12.4 3.2-7.3 3-12.9 10.5-14.7 18.4C.4 43.3 3.4 53.1 10 59.3zm43.8-20.5c0 13.5-10.9 24.4-24.4 24.4S5 52.2 5 38.8s10.9-24.4 24.4-24.4 24.4 10.9 24.4 24.4z" fill="#2a1e2a" opacity="1" data-original="#000000"></path></g></svg>