<svg xmlns="http://www.w3.org/2000/svg" xmlns:xlink="http://www.w3.org/1999/xlink" width="512" height="512" x="0" y="0" viewBox="0 0 73 73" style="enable-background:new 0 0 512 512" xml:space="preserve" class=""><g><path d="M57.573 13.928a.75.75 0 0 0 .75-.75V8.053a.75.75 0 0 0-1.5 0v5.125c0 .414.336.75.75.75zM61.23 14.192a.75.75 0 0 0 .691-.458 18.182 18.182 0 0 1 3.203-5.064.75.75 0 0 0-1.12-1 19.685 19.685 0 0 0-3.465 5.48.751.751 0 0 0 .691 1.042zM65.2 16.43c.481 0 .477-.247 2.858-2.176a.75.75 0 1 0-.967-1.147l-2.375 2c-.532.448-.215 1.324.484 1.324zM26.538 41.714l9.192-1.279-2.507 9.498a.75.75 0 0 0 1.451.383l2.444-9.26c2.232 2.362 4.477 4.608 6.597 6.568.144.134.327.2.51.2.675 0 1.012-.836.508-1.301-2.08-1.924-4.281-4.124-6.471-6.44l10.206-1.42a.75.75 0 1 0-.207-1.485l-10.505 1.461 2.746-10.406a.75.75 0 0 0-1.45-.383l-2.69 10.19a156.4 156.4 0 0 1-6.735-7.851.75.75 0 1 0-1.172.936 157.776 157.776 0 0 0 6.748 7.87l-8.872 1.234a.75.75 0 1 0 .207 1.485z" fill="#2a1e2a" opacity="1" data-original="#000000"></path><path d="M19.686 56.3c13.47 8.186 14.036 8.68 15.718 9.113.964.248 2.304.42 3.345.137.101-.013.202.003.383-.102 7.233-4.245 12.463-8.34 18.054-14.136 3.58-3.712 8.523-9.467 10.11-16.563 1.595-7.12-.932-14.488-6.144-17.915-3.293-2.165-7.793-2.9-12.346-2.013-4.13.805-8.52 3.08-11.633 4.963-5.937-5.751-15.98-6.518-22.905-1.74-3.753 2.368-6.867 6.007-8.427 10.318-2.446 6.761-.968 14.791 3.726 20.238 2.78 3.225 6.481 5.49 10.12 7.7zm4.877-39.847c4.468 0 8.933 1.638 11.954 4.799a.747.747 0 0 0 .937.12c3.025-1.872 7.5-4.272 11.64-5.078 4.171-.814 8.266-.159 11.234 1.793 4.702 3.092 6.965 9.81 5.506 16.334-1.507 6.729-6.274 12.268-9.728 15.85-5.373 5.57-10.41 9.542-17.285 13.619-9.754-7.82-24.535-11.18-29.665-23.007-4.385-10.111 1.77-24.43 15.407-24.43z" fill="#2a1e2a" opacity="1" data-original="#000000"></path></g></svg>