<svg xmlns="http://www.w3.org/2000/svg" xmlns:xlink="http://www.w3.org/1999/xlink" width="512" height="512" x="0" y="0" viewBox="0 0 64 64" style="enable-background:new 0 0 512 512" xml:space="preserve" class=""><g><path d="M46.932 5.411a19.838 19.838 0 0 0-7.512-3.2c-2.327-.445-5.802-1.423-7.858.09a.706.706 0 0 0-.726-.395c-4.966.743-10.174 1.817-14.41 4.646-10.196 7.09-10.08 24.918 1.35 30.759 2.14 1.353 5.35 2.438 6.417 4.923.354.826.129 1.774.524 2.573a1.846 1.846 0 0 0-2.047.668c-1.47 1.559-.676 4.155.974 5.211a2.986 2.986 0 0 0-1.685 3.406c.422 2.092 2.42 3.217 4.368 3.593a4.978 4.978 0 0 0 2.419 4.162c3.2 1.953 7.664-.78 7.164-4.54 3.32-.69 5.76-4.79 2.619-7.28a3.817 3.817 0 0 0 .54-5.404 15.24 15.24 0 0 0 .703-1.994 10.255 10.255 0 0 1 2.602-3.068c3.833-3.597 8.677-6.49 11.074-11.36 3.8-7.84.285-17.78-6.516-22.79zM23.637 47.28a2.369 2.369 0 0 1 1.381-1.718.295.295 0 0 0 .194-.155 3.602 3.602 0 0 0 2.039.68c2.053.185 4.143.09 6.2.075a13.733 13.733 0 0 0 3.888-.339c.993.676.601 2.106-.225 2.766-1.508 1.38-4.038 1.29-5.947 1.389-2.41.114-7.236.671-7.53-2.698zm7.398 13.097a2.913 2.913 0 0 1-3.27-2.521 30.081 30.081 0 0 0 6.016-.168 3.15 3.15 0 0 1-2.746 2.69zm6.08-5.896c-1.51 1.381-4.04 1.29-5.948 1.39-1.933.1-4.46.376-6.214-.63a2.343 2.343 0 0 1-1.316-2.068 2.41 2.41 0 0 1 1.413-1.74 21.813 21.813 0 0 0 11.486-.226c1.598.742 1.894 2.029.578 3.274zm15.07-29.108c-1.293 4.311-5.166 7.259-8.49 10.007-2.405 2.1-5.438 4.119-6.358 7.341-.063.956-.995.983-1.73 1.046a67.978 67.978 0 0 1-7.713.045c-.238-.007-1.032.057-1.201-.135.104-5.427-6.344-6.84-9.86-9.635-10.486-8.006-6.491-25.438 6.102-28.824 2.732-1.008 5.782-.864 8.49-1.776a.97.97 0 0 0 1.288.632c11.349-2.05 22.689 10.087 19.473 21.299z" fill="#2a1e2a" opacity="1" data-original="#000000"></path><path d="M35.153 29.08a4.117 4.117 0 0 0 .003-1.666c4.817-2.05 6.694-8.946 3.015-12.87-1.333-1.47-3.506-2.394-5.367-1.358-1.525-1-3.831-.224-5.328.53-6.067 3.16-5.897 12.832 1.313 14.346a3.43 3.43 0 0 0-.202 1.322 8.966 8.966 0 0 0-5.973 7.431.801.801 0 0 0 1.565.212 7.872 7.872 0 0 1 2.308-4.412 10.437 10.437 0 0 0 2.645 3.052c1.088.924 2.318 2.08 3.861 1.646 2.384-.79 3.852-3.234 4.575-5.517 1.712 1.205 2.387 2.877 3.03 4.748a.778.778 0 0 0 1.403-.184 5.119 5.119 0 0 0-.803-2.842c-1.23-2.19-3.452-4.254-6.045-4.438zM25.555 18.77a6.365 6.365 0 0 1 2.679-3.306c1.38-.852 2.853-.858 4.38-1.173a.798.798 0 0 0 .676.391 5.167 5.167 0 0 1 1.656.554c4.01 1.735 3.332 7.778-.157 9.725-4.704 2.937-11.301-.193-9.234-6.191zm5.114 11.903a2.215 2.215 0 0 1-.59-2.392 9.93 9.93 0 0 0 3.52-.317 4.592 4.592 0 0 1-.223 1.935 1.829 1.829 0 0 1-2.707.774zm4.147 2.686a6.294 6.294 0 0 1-2.256 2.3c-.96.426-2.115-.643-2.794-1.214-.906-.761-1.631-1.676-2.474-2.495a7.93 7.93 0 0 1 1.829-.959 3.282 3.282 0 0 0 5.706-.678 10.6 10.6 0 0 0 1.174.53 12.253 12.253 0 0 1-1.185 2.516zM38.088 11.261c.694.19.947-.531 1.27-.983q.17-.4.05-.115c.34-1.01 1.251-1.947 1.097-3.07-.182-1.192-1.588-.587-1.963.16-.475.788-1.772 3.598-.454 4.008zM40.573 12.592c.758.905 1.742-.232 2.485-.605.752-.579 2.18-.914 2.095-2.078-.436-1.48-2.21-.373-2.982.224-.7.58-2.299 1.38-1.598 2.46zM45.572 13.731c-.59-.583-1.448-.226-2.16-.131a1.66 1.66 0 0 0-.987.565.824.824 0 0 0 .483 1.188 4.249 4.249 0 0 0 2.433-.173c.495-.303.832-1.074.231-1.449z" fill="#2a1e2a" opacity="1" data-original="#000000"></path></g></svg>