<svg xmlns="http://www.w3.org/2000/svg" xmlns:xlink="http://www.w3.org/1999/xlink" width="512" height="512" x="0" y="0" viewBox="0 0 68 68" style="enable-background:new 0 0 512 512" xml:space="preserve" class=""><g><path d="M41.132 51.604c.88-.143.822-1.452-.102-1.475.223-.697.604-1.417.857-2.16 3.101-2.67 3.452-9.833 3.541-16.956.039-3.02-.38-5.325-1.318-7.254-1.094-2.25-3.5-2.95-5.335-2.214-.017-.028-.023-.06-.044-.085-.544-.682-1.405-1.642-2.587-2.11-.93-.369-1.921-.343-2.733.028-1.185-2.393-4.303-2.783-6.096-1.659-1.125-1.03-2.896-1.445-4.422-.96-1.881.602-2.822 2.105-2.794 4.468.03 2.533.286 4.492.834 6.353.018.06.049.11.079.162-1.446 1.448-2.48 3.278-2.716 5.157-.344 2.74.135 5.458 1.507 8.556 1.203 2.723 2.338 5.395 4.657 7.293.275.904.504 1.896.791 2.947-1.131.047-1.007 1.504-.06 1.504 1.93 0 9.483-.544 15.941-1.595zm-.888-28.845c.853 0 1.885.451 2.459 1.542-.228.385.217.226-1.47 2.187-1.25 1.456-1.508 1.784-1.613 3.714-.02.132.005 1.428-.53 1.862-.52.423-1.59.062-1.94-1.498-.125-.556-.15-1.401-.067-2.264.24-2.505.629-5.543 3.16-5.543zm-6.11 10.056c-.492-.358-1.31-1.51-1.252-1.914.082-.577.51-1.147.974-1.296.066-.02.118-.06.173-.097.629.51 1.72 1.324 1.601 2.132-.091.622-.878.993-1.497 1.175zm1.458-12.07c.635.25 1.25.765 1.93 1.607-1.506 1.423-1.889 4.383-1.976 6.462-.81-.692-2.053-1.661-3.05-2.305-.287-1.453.25-4.644 1.148-5.51.522-.501 1.354-.49 1.948-.254zm-4.69-1.846c.496.2 1.09.838 1.248 1.337.016.052.05.092.076.138-.863 1.216-1.314 3.488-1.3 5.264-1.182-.56-2.408-.9-3.721-.849-.157-1.55-.06-3.156.3-4.663.092-.393.232-.87.491-1.076.499-.396 1.723-.632 2.907-.151zm-9.303 2.31c-.02-1.696.52-2.627 1.75-3.02 1.015-.324 2.27-.022 2.995.67-.443 1.008-.908 3.486-.626 6.144-1.222.296-2.409.885-3.467 1.67-.417-1.587-.627-3.293-.652-5.463zm4.396 27.46a.709.709 0 0 0 .596-.003 9.545 9.545 0 0 0 5.46-10.11.749.749 0 1 0-1.481.226 8.043 8.043 0 0 1-4.603 8.52.747.747 0 0 0-.39.42l-.008-.009c-2.166-1.687-3.275-4.332-4.394-6.866-1.274-2.877-1.704-5.27-1.39-7.76.461-3.678 4.393-6.675 7.468-6.8 1.907-.084 3.706.898 5.49 2.22a3.25 3.25 0 0 0-1.347 2.183c-.107.753.36 1.67.933 2.398a7.297 7.297 0 0 1-4.009-1.07.75.75 0 0 0-.791 1.275c3.568 2.212 7.966 1.309 9.173-.425 1.029 1.062 2.454 1.074 3.332.361 1.068-.867 1.027-2.409 1.084-2.946.08-1.497.159-1.544 1.253-2.817.367-.426.74-.86 1.047-1.289.37 1.352.535 2.925.51 4.817-.083 6.595-.401 13.81-3.146 15.943a.746.746 0 0 0-.257.373c-.219.717-.697 1.608-.952 2.444a.745.745 0 0 0 .05.556 129.63 129.63 0 0 1-12.834 1.302c-.332-1.164-.455-1.76-.794-2.943zM39.079 17.796a.75.75 0 0 0 .744-.668l.526-4.84a.75.75 0 1 0-1.49-.162l-.527 4.84a.75.75 0 0 0 .747.83zM42.347 18.976a.75.75 0 0 0 .661-.395l1.965-3.662a.75.75 0 0 0-1.322-.71l-1.965 3.663a.75.75 0 0 0 .66 1.104zM45.903 21.156l3.534-.778a.75.75 0 1 0-.324-1.465l-3.533.778c-.953.21-.666 1.677.323 1.465z" fill="#2a1e2a" opacity="1" data-original="#000000"></path><path d="M36.655 3.152 33.03 2.21c-.012-.013-.025-.024-.036-.037a.753.753 0 0 0-.531-.24.836.836 0 0 0-.543.211C25.52 8.367 16.112 11.12 7.367 9.33a.744.744 0 0 0-.877.55c-5.421 21.502 4.143 44.702 24.412 55.547.042.023.09.02.136.035 2.517 1.539 5.655-.154 8.13-1.685C56.683 52.94 65.566 32.436 62.36 12.63l-2.997-2.208a.74.74 0 0 0-.85-.473c-1.321.287-2.657.46-3.996.546-6.773-.45-13.32-2.32-17.863-7.343zM7.777 10.934c8.775 1.56 18.083-1.16 24.638-7.194 6.44 6.572 16.364 9.595 25.683 7.824 2.073 9.992.467 21.747-4.247 30.867-4.942 9.566-13.355 17.58-22.555 21.504-19.346-10.541-28.326-32.583-23.52-53z" fill="#2a1e2a" opacity="1" data-original="#000000"></path></g></svg>