<svg xmlns="http://www.w3.org/2000/svg" xmlns:xlink="http://www.w3.org/1999/xlink" width="512" height="512" x="0" y="0" viewBox="0 0 100 100" style="enable-background:new 0 0 512 512" xml:space="preserve" class=""><g><g data-name="Layer 4 copy 5"><g data-name="Layer 12 copy 5"><path d="M93.69 16.47c-1.51-1.8-7.73-2.78-18.47-3.31-.2-1.06-.32-1.82-.36-2.18a2.28 2.28 0 0 0-1-1.6c-1.06-.76-3.41-1-7.43-.7l-.53-1.6a5.38 5.38 0 0 0-6.52-3.5c-9.13 2.48-22.9 7.27-30.29 9.9C9.8 20.36 9.8 20.42 10 21.89c.1.8.62 2.94 1.44 6-.95.35-1.71.65-2.05.79-3.5 1.43-4 4.27-3.32 6.45s3 4.66 5.16 4.66a3.08 3.08 0 0 0 .61-.07c.44-.11 1.34-.36 2.73-.77.64 2.16 1.31 4.45 2 6.81l-2.69.79c-2.68.78-3.92 3.14-3.16 6 .69 2.56 2.86 5 5.13 5a2.88 2.88 0 0 0 .71-.09c.72-.17 2-.52 3.29-.91.37 1.24.75 2.48 1.13 3.7l.93 3c-.73.18-1.5.38-2.31.62a5.14 5.14 0 0 0-3.53 6.52c.57 2.41 2.52 4.61 5.14 4.61a5.19 5.19 0 0 0 1-.11c1-.22 2.08-.48 3.06-.75.71 2.25 1.36 4.25 1.94 6.06l-2.3.67a4.54 4.54 0 0 0-3.33 3.78A6.61 6.61 0 0 0 24 90.77a3.45 3.45 0 0 0 2 .64 3.32 3.32 0 0 0 1.7-.48 14.85 14.85 0 0 1 2.83-1 34 34 0 0 0 2.39 5.81 1.45 1.45 0 0 0 1.36.69 15 15 0 0 0 3.35-.59c4.51-.8 13.14-2.34 21.74-3.83 9.45 1.09 18.28 2.17 20.89 2.66a2.49 2.49 0 0 0 2-.51c3.83-2.89 6.81-20.75 11-65.89.46-5.05.83-9 1-10a2.23 2.23 0 0 0-.57-1.8zm-6.85.67-10.18 3.48c-.14-.71-.28-1.4-.4-2.06l5.68-1.95c1.85.15 3.5.32 4.9.53zm-10.13 23-.63-2 .84-.29.39 2.15zm.78.79c.13.69.25 1.38.38 2.08l-.22.07c-.21-.66-.42-1.32-.64-2zm-1.72-3.73c-.21-.66-.42-1.33-.64-2l1.22-.41q.2 1 .39 2.07zm3.64-20.82-3.35 1.15c-.09-.47-.18-.93-.26-1.36 1.2.1 2.45.17 3.61.25zm-3.25 17.47-1.33.45c-.22-.66-.43-1.33-.64-2l1.58-.55zm-.58-3.07-1.7.58c-.22-.66-.43-1.32-.64-2l1.94-.67c.13.7.26 1.39.4 2.09zM75 27.72l-2.06.71c-.22-.67-.43-1.33-.65-2l2.3-.79c.13.69.26 1.36.41 2.08zm-1-5.12c.13.67.26 1.35.4 2.06l-2.4.83c-.22-.67-.44-1.33-.65-2zm-.23-1.18v.19l-2.77.95-.65-2 3-1c.16.58.28 1.21.41 1.86zm-.56-2.87-3.14 1.07c-.22-.67-.44-1.33-.65-2l3.39-1.16c.11.66.24 1.35.39 2.09zm-.59-3.06-3.51 1.2-.66-2 3.78-1.3c.1.61.22 1.31.38 2.1zm-4.29-4a10.09 10.09 0 0 1 3.61.23c0 .19.07.43.11.7l-3.91 1.34c-.23-.69-.45-1.35-.65-2zM15.12 35.61c-2 .6-3.5 1-3.93 1.14a4.1 4.1 0 0 1-2.38-3c-.12-.67-.08-1.65 1.68-2.37C13.4 30.23 17.15 29 18.34 29h.11a5.83 5.83 0 0 1 2.72 4c0 .43-.07.87-1.08 1.16zm.72 19c-.38.09-1.78-1.1-2.24-2.81-.5-1.91.62-2.23 1.1-2.37 1.93-.56 3.6-1.06 5-1.48 1.84-.55 3.44-1 3.88-1.11h.29A2.88 2.88 0 0 1 26.32 49c.38 1.35-.31 2.47-1.94 3.15-.72.16-6.66 1.96-8.54 2.42zM21.6 72c-1.27.27-2.32-1-2.64-2.26a2.2 2.2 0 0 1 1.45-2.91 53.75 53.75 0 0 1 8-1.65c.59-.08 1-.15 1.24-.2a3.24 3.24 0 0 1 2.06 2.3c.08.35.32 1.44-1.73 2.28A73.29 73.29 0 0 1 21.6 72zm4.55 16.38c-.11.06-.2.12-.45 0a3.6 3.6 0 0 1-1.15-3.17 1.56 1.56 0 0 1 1.2-1.37l3.54-1c1.83-.54 2.83-.84 4.89-1.38A3.3 3.3 0 0 1 36 83.75c.09.59 0 1.44-1.49 2.12-1.36.29-6.61 1.45-8.36 2.48zm43.66 1.89c2.57-.43 5-.82 7-1.14l-4.3 1.47zm11.26.65-1.74.6c-1.17-.18-2.73-.39-4.59-.63l7.31-2.51a17.24 17.24 0 0 1-.98 2.51zm1.69-7.1-7.2 2.46c-3.53.57-7.92 1.3-12.53 2.09l19.87-6.8a22.08 22.08 0 0 1-.14 2.22zm.06-6.72c-2.13-6.7-10.49-32.78-12.58-37.52a.5.5 0 0 0-.91.41c2 4.65 10.53 31.09 12.58 37.5l-1.75.64c-1.55-5.8-8-23.54-8.82-25.8a.5.5 0 0 0-.94.34c3.18 8.72 7.69 21.54 8.83 25.8C55.56 87.11 38.74 92.8 35 93.44c-.35-.79-.91-2.26-1.6-4.25l1.88-.42.27-.08c3.44-1.43 3.9-4.21 3.19-6.33-.77-2.31-3.13-4.49-5.24-3.94-1.44.38-2.4.65-3.4.93-.62-1.9-1.27-3.93-1.94-6 1.65-.52 2.79-.94 2.89-1h.05c3.52-1.44 4.08-4.14 3.43-6.19-.74-2.4-3.27-4.65-5.53-4.16-.19 0-.53.09-1 .16-.77.1-1.86.26-3.19.5-.71-2.3-1.43-4.63-2.14-7l2.62-.79h.13c3.75-1.53 4.37-4.6 3.76-6.77-.7-2.49-3.17-4.77-6.11-4.29-.56.09-1.58.39-3.69 1-.71-2.37-1.38-4.65-2-6.8l3.55-1a4.06 4.06 0 0 0 3.21-4.49C23.85 29.68 21 26.2 18.73 26a14.81 14.81 0 0 0-4.52.87c-.49-1.83-.86-3.3-1.07-4.29 5.44-2.19 32.61-12.2 47.05-16.13A2.38 2.38 0 0 1 63.07 8c4.09 12.29 17.66 53.41 20.74 66.54a2.36 2.36 0 0 1-.99 2.53zm2.85-7.36c-.18-.63-.36-1.29-.55-2l.86-.29c-.1.76-.21 1.55-.31 2.26zm.46-3.39-1.29.44a23.8 23.8 0 0 0-.22-.8l-.18-1.27 2-.68c-.1.75-.2 1.51-.31 2.28zm.45-3.42-2.28.78c-.1-.68-.2-1.38-.31-2.1l2.87-1c-.09.76-.19 1.53-.28 2.29zM87 59.5l-3.15 1.08c-.1-.68-.21-1.39-.32-2.1l3.74-1.28c-.09.8-.18 1.53-.27 2.3zm.4-3.4-4 1.38c-.11-.68-.22-1.38-.33-2.09l4.62-1.58c-.12.76-.21 1.52-.3 2.29zm.38-3.39-4.91 1.68c-.11-.69-.23-1.38-.35-2.09L88 50.42c-.06.76-.14 1.52-.23 2.29zm.37-3.39-5.8 2c-.11-.68-.23-1.37-.35-2.08L88.38 47zm.35-3.39-6.68 2.29c-.12-.68-.24-1.37-.36-2.08l7.27-2.49c-.08.75-.16 1.52-.24 2.28zm.34-3.37-7.56 2.58c-.12-.68-.24-1.37-.37-2.07l8.15-2.8c-.06.73-.15 1.52-.23 2.29zm.33-3.38-8.44 2.89c-.12-.69-.25-1.37-.38-2.07l9-3.1c-.04.75-.11 1.51-.19 2.28zm.32-3.37L80.16 39c-.13-.68-.25-1.37-.38-2.07l9.92-3.4c-.07.74-.14 1.47-.22 2.28zm.32-3.38-10.21 3.5q-.2-1-.39-2.07L90 30.16c-.06.73-.13 1.5-.2 2.27zm.4-4.43-.1 1.06L79 32.87c-.13-.68-.27-1.38-.4-2.07l11.7-4c-.02.39-.05.78-.09 1.2zm.21-2.31-12 4.1q-.2-1-.39-2.07l12.59-4.31q-.08 1.06-.2 2.29zm.32-3.38-12.89 4.43c-.14-.68-.27-1.37-.4-2.07L91 20c-.1.69-.18 1.45-.26 2.32zm.35-3.38-13.84 4.75c-.13-.68-.26-1.37-.4-2.07l12-4.12a7.57 7.57 0 0 1 2.28.75c.02.2-.01.44-.04.7z" fill="#2a1e2a" opacity="1" data-original="#000000" class=""></path><path d="M40.27 18.82c-1.33.44-13.1 4.42-14.88 6a1.53 1.53 0 0 0-.44 1.6c1.07 3.31 3.94 12.37 4.32 14.43.27 1.5 1.85 1.71 2.89 1.71h.66c3.62-.23 10.6-2.17 15.91-4 11.65-4 11.75-5.74 11.81-6.68.17-3.06-3.34-14.22-5.08-16.14-.71-.82-1.38-1.56-15.19 3.08zm-8.21 20.72c-.7-2.93-3-10.15-3.89-13 4.32-2.17 21.8-8 25.35-8.45 1.27 2.22 3.94 10.59 4 13.25-2.36 2.38-21.44 8.41-25.46 8.2zM67.25 43.13a.5.5 0 1 0-.92.39l2 4.82a.5.5 0 0 0 .46.3.48.48 0 0 0 .2 0 .49.49 0 0 0 .26-.65z" fill="#2a1e2a" opacity="1" data-original="#000000" class=""></path></g></g></g></svg>