<svg xmlns="http://www.w3.org/2000/svg" xmlns:xlink="http://www.w3.org/1999/xlink" width="512" height="512" x="0" y="0" viewBox="0 0 72 72" style="enable-background:new 0 0 512 512" xml:space="preserve" class=""><g><path d="m5.585 51.497 33.215-.015c-.018 2.808-.038 5.62-.084 8.528a.75.75 0 0 0 .74.762l10.065.155a61.304 61.304 0 0 0 4.71 4.79.733.733 0 0 0 1.064-.07c.55-.137 1.089-.325 1.58-.605.254-1.752.775-3.495 1.271-5.209 2.478.106 4.884.274 7.13.697.311.057.632-.083.793-.372 1.167-.824 2.192-1.235 2.257-2.596.02-.43.03-.88.07-1.26v-12.23c0-.84-.45-1.62-1.18-2.05a11.079 11.079 0 0 0-.775-.408.74.74 0 0 0-.538-.338c-5.38-.56-8.42-.609-8.42-.609.192-9.776.272-20.374-.113-30.233a3.45 3.45 0 0 0-1.51-2.722c-.456-.309-.907-.586-1.312-.772a2.241 2.241 0 0 0-.803-.585c-1.045-.456-2.388-.193-3.2-.193H8.186c-2.382 0-4.472-.836-4.46 3.236.05 12.933-.03 31.335-.12 39.351-.022 2.534.417 2.748 1.98 2.748zm.499-1.51c-1.126.044-.99.203-.979-1.225 0 .101.09-11.34.124-32.888 50.39-.023 48.1.05 48.387-.047v24.776c-4.632-.03-9.344.175-14.031.622a.752.752 0 0 0-.68.737c-.036 2.735-.064 5.384-.092 8.02l-32.73.006zm58.65 8.925c-2.655-.427-5.464-.552-8.343-.65a.746.746 0 0 0-.659.349.75.75 0 0 0-.458 1.226c.038.045.046.113.057.17-.337 1.25-.67 2.502-1 3.753-3.939-3.744-3.751-4.318-4.454-4.328l-9.65-.148c.076-5.3.059-8.129.17-16.627 8.634-.786 16.799-.736 24.687.044.06 5.463.064 10.789-.35 16.211zM8.186 7.662h42.36c.82 0 1.958-.212 2.6.068a.722.722 0 0 1 .359.352c.175 2.581.144 1.88.11 6.34-.285-.096 1.984-.024-48.385-.048-.001-1.245-.002-4.373-.005-4.981-.006-2.513.515-1.73 2.96-1.73z" fill="#2a1e2a" opacity="1" data-original="#000000"></path><path d="M9.162 12.685c1.49-.316 1.807-2.402.583-3.045a1.22 1.22 0 0 0-.942-.081c-.804-.636-2.02.76-1.544 2.048.286.773 1.127 1.244 1.903 1.078zM15.86 12.626c.778-.164 1.355-.908 1.34-1.731-.018-.978-.84-1.667-1.699-1.396-.81-.63-2.019.763-1.543 2.048.28.754 1.1 1.244 1.901 1.08zM22.728 12.507c1.483-.315 1.812-2.397.583-3.045a1.225 1.225 0 0 0-.943-.08c-.803-.636-2.022.758-1.543 2.047.289.777 1.132 1.244 1.903 1.078zM29.908 22.846c-6.756-.336-14.127.145-20.717.036-.421-.023-.736.302-.761.702-.33 5.137 0 9.6-.034 14.416a.75.75 0 0 0 .685.752c6.05.524 14.692.4 20.8-.004.545 0 .83-.321.856-.695.182-2.597.535-9.21-.122-14.55a.75.75 0 0 0-.707-.657zM9.885 24.392c6.262.06 13.067-.335 19.313-.077.373 3.502.335 7.475.218 10.413-1.581-1.338-3.38-2.548-4.998-3.575a.75.75 0 0 0-.924.093L20.54 34.11a49.81 49.81 0 0 0-3.349-3.848.753.753 0 0 0-1.105.025 103.43 103.43 0 0 1-6.194 6.467c-.02-4.327-.23-8.135-.008-12.362zm1.481 13.018c1.83-1.78 3.618-3.616 5.306-5.517 1.787 1.917 3.283 3.82 4.5 5.684-3.328.047-6.782.005-9.806-.167zm11.568.134a35.575 35.575 0 0 0-1.492-2.218l2.67-2.59c1.753 1.128 3.676 2.447 5.203 3.888.003.003.007.004.01.006l-.04.654c-1.87.115-4.054.207-6.35.26z" fill="#2a1e2a" opacity="1" data-original="#000000"></path><path d="M20.854 29.76c1.027-.036 1.924-.86 2.041-1.874.15-1.291-.914-2.406-2.357-2.103-1.576.339-2.26 1.935-1.46 3.1.35.51.974.877 1.776.877zm-.564-2.139c.105-.197.43-.39.722-.39.287 0 .422.237.393.483-.029.25-.293.535-.604.546-.325.049-.69-.309-.511-.639zM33.898 25.195h16.08a.75.75 0 0 0 0-1.5h-16.08a.75.75 0 0 0 0 1.5zM47.298 31.068a.75.75 0 0 0 0-1.5H33.78a.75.75 0 0 0 0 1.5zM39.228 35.905c-.01-.414-.363-.72-.77-.73l-4.413.121a.75.75 0 0 0 .02 1.5h.021l4.413-.12a.75.75 0 0 0 .73-.771zM53.677 44.409a8.77 8.77 0 0 0-.378-1.27.742.742 0 0 0-.747-.471l-1.844.105a.74.74 0 0 0-.676.594c-.114.19-.355 1.082-.397 1.26-.801.277-1.542.751-2.125 1.362-.42-.119-.87-.216-1.386-.3a.75.75 0 0 0-.774.374c-.162.289-.318.576-.475.863-.718 1.314-1.006 1.293.687 2.685-.222.827-.115 1.664.076 2.499-.271.305-.547.617-.835.898a.75.75 0 0 0-.06 1.009c.913 1.13.99 1.895 1.759 1.719.426-.1.77-.155 1.418-.283.63.584 1.407.984 2.243 1.184.143.477.312.962.524 1.454a.75.75 0 0 0 .689.453c.04 0 1.8-.092 1.84-.094a.75.75 0 0 0 .682-.559c.123-.468.23-1.006.308-1.53a6.63 6.63 0 0 0 2.156-1.341c.45.111.873.195 1.334.32a.752.752 0 0 0 .878-.41c1.104-2.413 1.294-1.895-.46-3.435a4.958 4.958 0 0 0 .022-2.521c.295-.33.572-.65.838-.911a.75.75 0 0 0 .17-.821c-.274-.667-.69-1.247-1.02-1.678a.747.747 0 0 0-.887-.234c-.33.14-.723.248-1.195.33a6.3 6.3 0 0 0-2.365-1.251zm3.577 2.506c.102.148.202.305.293.468-.326.357-.54.613-.797.883a.75.75 0 0 0-.162.772c.281.774.268 1.649-.034 2.402a.75.75 0 0 0 .171.815c.341.334.706.624 1.027.904-.113.24-.164.342-.276.58-.473-.109-.813-.185-1.142-.274a.756.756 0 0 0-.741.208c-.639.676-1.462 1.183-2.26 1.392a.75.75 0 0 0-.554.641c-.047.415-.12.86-.208 1.275l-.702.037c-.431-1.124-.387-1.677-1.025-1.765a3.55 3.55 0 0 1-2.123-1.123.752.752 0 0 0-.727-.228c-.359.083-.604.125-1.312.261-.12-.185-.243-.372-.373-.556.189-.205.34-.377.707-.788a.752.752 0 0 0 .172-.679c-.188-.774-.422-1.728-.063-2.446a.75.75 0 0 0-.219-.934 11.81 11.81 0 0 1-.909-.76l.403-.736c.41.083.772.18 1.112.297a.75.75 0 0 0 .84-.252 3.878 3.878 0 0 1 2.11-1.362.75.75 0 0 0 .57-.639c.04-.324.165-.715.27-1.067l.764-.046c.094.315.174.633.224.957.05.322.303.575.626.626.82.128 1.688.574 2.379 1.223a.736.736 0 0 0 .616.198 8.77 8.77 0 0 0 1.343-.284z" fill="#2a1e2a" opacity="1" data-original="#000000"></path><path d="M54.806 50.517c-.023-1.482-1.374-2.917-3.021-2.814-1.651.07-2.854 1.474-2.79 2.989 0 1.454 1.355 2.869 3.006 2.82 1.592-.053 2.859-1.396 2.805-2.98v-.015zm-2.856 1.495c-.843.042-1.444-.662-1.455-1.404a1.402 1.402 0 0 1 1.347-1.405c.723-.012 1.364.518 1.45 1.237a1.398 1.398 0 0 1-1.342 1.572z" fill="#2a1e2a" opacity="1" data-original="#000000"></path></g></svg>