<svg xmlns="http://www.w3.org/2000/svg" width="127" height="130" viewBox="0 0 127 130" fill="none"><path d="M12.9 120.061L9.98 119.62C9.62 121.6 8.5 122.741 6.76 122.741C4.32 122.741 3.06 120.84 3.06 117.84C3.06 114.88 4.32 112.98 6.8 112.98C8.34 112.98 9.6 113.96 9.86 115.42L12.82 115.08C12.26 112.06 9.84 110.42 6.82 110.42C2.5 110.42 0 113.66 0 117.94C0 122.16 2.56 125.28 6.78 125.28C9.92 125.28 12.26 123.381 12.9 120.061Z" fill="white"></path><path d="M14.315 119.76C14.315 122.84 16.115 125.26 19.655 125.26C23.135 125.26 25.015 122.68 25.015 119.82C25.015 116.36 22.635 114.4 19.655 114.4C16.575 114.4 14.315 116.54 14.315 119.76ZM17.135 119.84C17.135 117.98 17.975 116.58 19.655 116.58C21.335 116.58 22.175 117.98 22.175 119.82C22.175 121.68 21.335 123.08 19.655 123.08C17.975 123.08 17.135 121.681 17.135 119.84Z" fill="white"></path><path d="M31.7425 116.561C33.4225 116.561 33.3225 117.96 33.3225 119.26V125H36.1225V119.64C36.1225 117.66 36.7225 116.561 38.1225 116.561C39.6425 116.561 39.6825 117.82 39.6825 119.12V125H42.4825V118.22C42.4825 115.86 41.3425 114.4 38.8825 114.4C37.5625 114.4 36.5025 115.08 35.7425 116.08C35.1625 114.9 34.0825 114.4 32.7825 114.4C31.4825 114.4 30.4225 114.98 29.6025 116.06H29.5625V114.64H26.9625V125H29.7425V120.08C29.7425 118.7 29.7025 116.561 31.7425 116.561Z" fill="white"></path><path d="M47.6922 113.14V110.701H44.8922V113.14H47.6922ZM47.6922 125V114.64H44.8922V125H47.6922Z" fill="white"></path><path d="M56.8675 125H59.6675V118.6C59.6675 116.06 58.8875 114.4 56.0275 114.4C54.7475 114.4 53.5475 114.96 52.7475 116.14H52.7075V114.64H50.0875V125H52.8875V119.94C52.8875 119.02 52.9475 118.34 53.0875 117.9C53.2875 117.26 53.9475 116.561 55.1075 116.561C56.3875 116.561 56.8675 117.56 56.8675 118.74V125Z" fill="white"></path><path d="M66.7202 129.061C70.3202 129.061 71.8402 127.54 71.8402 124.14V114.64H69.2002V116.06H69.1802C68.4202 114.9 67.3802 114.4 66.0602 114.4C63.1602 114.4 61.6402 116.8 61.6402 119.64C61.6402 122.32 63.0202 124.86 65.9802 124.86C67.2402 124.86 68.3802 124.32 69.1002 123.22H69.1202V124.66C69.1202 126.14 68.5602 127.061 66.8202 127.061C65.3602 127.061 65.0802 126.28 64.9802 125.82L62.0002 125.64C62.0602 126.66 62.6202 129.061 66.7202 129.061ZM66.7202 122.68C65.2402 122.68 64.4802 121.36 64.4802 119.54C64.4802 117.72 65.3002 116.521 66.7602 116.521C68.3602 116.521 69.1402 117.78 69.1402 119.68C69.1402 121.46 68.2202 122.68 66.7202 122.68Z" fill="white"></path><path d="M90.4183 114.88C90.3783 111.92 88.0783 110.42 84.7983 110.42C81.8383 110.42 79.5383 112.02 79.5383 114.54C79.5383 115.8 79.9983 116.661 80.8583 117.381C81.8583 118.221 84.7983 118.94 86.1383 119.32C87.3183 119.66 87.8983 120.14 87.8983 120.98C87.8983 122.28 86.3983 122.84 85.0983 122.84C83.3183 122.84 82.0783 122.06 81.9583 120.16L79.0383 120.3C79.1983 123.66 81.6383 125.28 85.0383 125.28C88.3583 125.28 90.8583 123.86 90.8583 120.8C90.8583 119.08 90.0783 117.98 88.9183 117.34C87.6383 116.62 84.5583 115.961 83.4383 115.521C82.6583 115.221 82.4383 114.881 82.4383 114.34C82.4383 113.281 83.5983 112.82 84.7383 112.82C86.2783 112.82 87.2783 113.38 87.4583 114.96L90.4183 114.88Z" fill="white"></path><path d="M92.3423 119.76C92.3423 122.84 94.1423 125.26 97.6823 125.26C101.162 125.26 103.042 122.68 103.042 119.82C103.042 116.36 100.662 114.4 97.6823 114.4C94.6023 114.4 92.3423 116.54 92.3423 119.76ZM95.1623 119.84C95.1623 117.98 96.0023 116.58 97.6823 116.58C99.3623 116.58 100.202 117.98 100.202 119.82C100.202 121.68 99.3623 123.08 97.6823 123.08C96.0023 123.08 95.1623 121.681 95.1623 119.84Z" fill="white"></path><path d="M104.335 119.76C104.335 122.84 106.135 125.26 109.675 125.26C113.155 125.26 115.035 122.68 115.035 119.82C115.035 116.36 112.655 114.4 109.675 114.4C106.595 114.4 104.335 116.54 104.335 119.76ZM107.155 119.84C107.155 117.98 107.995 116.58 109.675 116.58C111.355 116.58 112.195 117.98 112.195 119.82C112.195 121.68 111.355 123.08 109.675 123.08C107.995 123.08 107.155 121.681 107.155 119.84Z" fill="white"></path><path d="M123.762 125H126.562V118.6C126.562 116.06 125.782 114.4 122.922 114.4C121.642 114.4 120.442 114.96 119.642 116.14H119.602V114.64H116.982V125H119.782V119.94C119.782 119.02 119.842 118.34 119.982 117.9C120.182 117.26 120.842 116.561 122.002 116.561C123.282 116.561 123.762 117.56 123.762 118.74V125Z" fill="white"></path><path d="M88.4827 31.6141C88.2875 31.555 88.0813 31.5119 87.8519 31.4996C87.0238 31.4516 86.1955 31.4009 85.3676 31.3526C85.9735 31.3884 86.2236 20.5254 86.1608 19.5092C85.9313 15.7715 85.1892 11.9061 83.5033 8.53411C80.1659 1.85765 73.1997 0.494256 66.4655 0.0904458C59.2075 -0.345486 51.739 0.620624 46.9697 6.85692C41.9916 13.3652 40.9328 21.8268 41.4549 29.8072C40.029 29.8457 38.6044 29.8771 37.1773 29.9456C35.6256 30.0201 34.8311 31.2334 34.7857 32.4438C34.7345 32.6337 34.6987 32.8346 34.6902 33.055C34.135 47.3523 34.606 61.6684 33.7582 75.9568C33.6479 77.8049 35.2539 78.5746 36.6708 78.2906C36.9177 78.3765 37.1838 78.4385 37.4886 78.4438C54.7993 78.7664 72.1035 79.3696 89.4048 79.998C90.9713 80.0553 91.7645 78.8984 91.8003 77.6865C92.0585 77.3164 92.2145 76.8467 92.2018 76.2678C91.9212 62.1669 92.1229 48.0558 90.9578 33.9885C90.8381 32.4876 89.6604 31.7003 88.4827 31.6141ZM46.9813 19.7771C47.6414 16.6627 48.8841 13.6174 50.6792 10.9815C53.6523 6.61618 59.9285 4.75103 65.5148 4.75509C67.463 4.75597 69.3273 4.98453 70.9378 5.41375C77.6647 7.20531 80.9619 12.0355 81.3025 18.8226C81.4935 22.623 81.221 26.7922 80.4799 30.5277C80.4423 30.711 80.4298 30.8866 80.4278 31.0569C79.3881 30.9938 78.3488 30.9323 77.3091 30.8688C78.0978 27.201 78.1497 23.5144 76.5546 19.9462C74.6615 15.712 69.7532 13.8671 65.5086 13.2461C65.289 13.2138 65.0802 13.2129 64.8787 13.2295C64.6778 13.1829 64.4629 13.1532 64.2244 13.1578C60.1126 13.2393 56.0554 14.3373 53.3131 17.5851C50.4819 20.9391 50.0544 25.5259 50.4976 29.7372C49.1403 29.7246 47.783 29.7188 46.4256 29.7264C45.9279 29.7289 46.8061 20.6041 46.9813 19.7771ZM72.3006 30.575C66.6932 30.2529 61.0859 29.9705 55.4748 29.8272C55.1565 26.995 55.1408 24.094 56.569 21.5411C58.0877 18.8265 61.3821 18.1876 64.2258 18.1315C64.3298 18.1295 64.4175 18.1085 64.5153 18.0965C67.6565 18.5851 70.6517 19.4928 72.2595 22.4557C73.5383 24.8127 73.0177 27.9235 72.3006 30.575ZM38.8522 73.4973C39.4872 60.6205 39.1807 47.7231 39.6095 34.8395C55.153 34.2851 70.6446 35.4629 86.1562 36.372C87.0827 49.2099 86.9788 62.0794 87.2082 74.9438C71.0927 74.3614 54.9765 73.813 38.8522 73.4973Z" fill="white"></path><path d="M62.9795 42.2129C59.5574 42.2129 56.7832 44.9877 56.7832 48.4094C56.7832 51.1833 58.6056 53.5304 61.1185 54.3207C60.9411 57.9307 60.9164 61.5434 60.9164 65.1578C60.9164 67.5247 64.5872 67.5247 64.5872 65.1578C64.5872 61.5487 64.6114 57.9404 64.7889 54.3361C67.3288 53.5616 69.1757 51.202 69.1757 48.4094C69.1759 44.9876 66.4022 42.2129 62.9795 42.2129Z" fill="white"></path></svg>