<svg xmlns="http://www.w3.org/2000/svg" width="1456" height="848" viewBox="0 0 1456 848" fill="none"><path fill-rule="evenodd" clip-rule="evenodd" d="M519.229 0.623974C514.279 1.13297 504.604 2.49098 497.729 3.64298C490.854 4.79398 479.379 7.23998 472.229 9.07898C465.079 10.917 453.855 14.284 447.287 16.562C440.719 18.839 429.764 23.217 422.941 26.291C416.119 29.364 405.164 34.957 398.597 38.719C392.03 42.482 382.678 48.236 377.815 51.505C372.952 54.775 364.434 61.067 358.886 65.486C353.338 69.906 343.987 78.144 338.105 83.793C332.224 89.441 323.541 98.563 318.809 104.063C314.078 109.563 306.75 118.812 302.524 124.616C298.298 130.421 291.873 140.096 288.247 146.116C284.62 152.137 279.233 162.013 276.275 168.063C273.317 174.113 269.113 183.563 266.933 189.063C264.752 194.563 261.312 204.203 259.287 210.485C257.262 216.767 254.547 226.442 253.254 231.985C251.96 237.528 250.194 246.338 249.33 251.563C248.465 256.788 247.221 265.563 246.566 271.063C245.91 276.563 245.387 291.435 245.403 304.111L245.433 327.159L233.273 328.324C226.585 328.965 215.532 330.667 208.71 332.107C201.888 333.548 191.114 336.3 184.768 338.223C178.422 340.146 168.431 343.685 162.567 346.086C156.703 348.487 148.31 352.26 143.915 354.469C139.521 356.679 131.719 361.034 126.577 364.147C121.436 367.26 113.404 372.56 108.729 375.925C104.054 379.29 95.729 385.908 90.229 390.632C84.729 395.355 76.6679 403.01 72.3149 407.642C67.9629 412.273 61.1739 420.113 57.2289 425.063C53.2839 430.013 48.0189 436.988 45.5299 440.563C43.0409 444.138 38.4259 451.476 35.2749 456.87C32.1229 462.264 27.398 471.264 24.774 476.87C22.15 482.476 18.1 492.235 15.775 498.557C13.449 504.878 10.029 515.968 8.17595 523.201C6.32195 530.434 3.91194 542.587 2.82094 550.207C1.72994 557.828 0.542949 570.138 0.183949 577.563C-0.185051 585.182 0.0169535 597.162 0.647953 605.063C1.26295 612.763 2.46395 623.338 3.31595 628.563C4.16895 633.788 6.16095 643.238 7.74295 649.563C9.32495 655.888 12.4659 666.463 14.7239 673.063C16.9819 679.663 22.59 692.713 27.188 702.063C31.785 711.413 38.8829 724.058 42.9599 730.164C47.0379 736.27 53.7839 745.505 57.9519 750.686C62.1189 755.868 70.4119 764.992 76.3789 770.962C82.3469 776.932 91.729 785.444 97.229 789.877C102.729 794.311 112.629 801.483 119.229 805.815C125.829 810.147 137.979 817.005 146.229 821.055C154.479 825.105 166.179 830.207 172.229 832.392C178.279 834.577 189.603 837.964 197.393 839.917C205.183 841.87 216.658 844.277 222.893 845.266C233.691 846.978 257.666 847.063 727.729 847.063C1197.79 847.063 1221.77 846.978 1232.57 845.266C1238.8 844.277 1250.28 841.87 1258.07 839.917C1265.86 837.964 1277.18 834.577 1283.23 832.392C1289.28 830.207 1300.98 825.105 1309.23 821.055C1317.48 817.005 1329.63 810.147 1336.23 805.815C1342.83 801.483 1352.73 794.311 1358.23 789.877C1363.73 785.444 1373.11 776.932 1379.08 770.962C1385.05 764.992 1393.34 755.868 1397.51 750.686C1401.67 745.505 1408.42 736.27 1412.5 730.164C1416.58 724.058 1423.67 711.413 1428.27 702.063C1432.87 692.713 1438.48 679.663 1440.73 673.063C1442.99 666.463 1446.13 655.888 1447.71 649.563C1449.3 643.238 1451.29 633.788 1452.14 628.563C1452.99 623.338 1454.2 612.763 1454.81 605.063C1455.44 597.162 1455.64 585.182 1455.27 577.563C1454.92 570.138 1453.73 557.828 1452.64 550.207C1451.55 542.587 1449.14 530.434 1447.28 523.201C1445.43 515.968 1442.01 504.878 1439.68 498.557C1437.36 492.235 1433.31 482.476 1430.68 476.87C1428.06 471.264 1423.33 462.264 1420.18 456.87C1417.03 451.476 1412.42 444.138 1409.93 440.563C1407.44 436.988 1402.17 430.013 1398.23 425.063C1394.28 420.113 1387.49 412.273 1383.14 407.642C1378.79 403.01 1370.73 395.355 1365.23 390.632C1359.73 385.908 1351.4 379.29 1346.73 375.925C1342.05 372.56 1334.02 367.257 1328.87 364.14C1323.72 361.024 1315.62 356.527 1310.87 354.147C1306.12 351.767 1297.05 347.757 1290.73 345.235C1284.4 342.714 1273.83 339.1 1267.23 337.204C1260.63 335.309 1252.3 333.199 1248.73 332.517C1245.15 331.835 1241.71 330.875 1241.08 330.384C1240.45 329.893 1239.64 327.874 1239.26 325.897C1238.89 323.919 1236.62 316.338 1234.21 309.05C1231.8 301.761 1227.17 289.742 1223.92 282.341C1220.68 274.939 1215.45 264.31 1212.32 258.719C1209.18 253.129 1203.12 243.267 1198.85 236.804C1194.58 230.342 1188.01 221.231 1184.25 216.559C1180.5 211.886 1173.78 204.05 1169.33 199.146C1164.87 194.241 1156.66 186.094 1151.07 181.042C1145.48 175.989 1135.8 167.993 1129.57 163.274C1123.33 158.554 1113.5 151.729 1107.73 148.106C1101.95 144.484 1091.6 138.663 1084.73 135.17C1077.85 131.678 1066.6 126.557 1059.73 123.792C1052.85 121.026 1042.73 117.385 1037.23 115.701C1031.73 114.016 1022.5 111.502 1016.73 110.114C1010.95 108.726 1000.21 106.669 992.865 105.544C985.515 104.419 972.24 103.108 963.365 102.63C954.396 102.147 940.471 102.138 932.013 102.61C923.644 103.077 913.069 103.945 908.513 104.539C903.957 105.133 894.508 106.746 887.516 108.123C880.523 109.501 868.726 112.421 861.3 114.614C853.874 116.807 841.82 121.002 834.513 123.938C827.207 126.874 816.982 131.412 811.792 134.024C803.678 138.105 802.205 138.559 801.292 137.257C800.707 136.425 797.402 131.709 793.946 126.778C790.491 121.847 783.966 113.38 779.446 107.962C774.927 102.544 766.473 93.376 760.659 87.587C754.846 81.799 745.846 73.565 740.659 69.289C735.473 65.013 727.179 58.617 722.229 55.076C717.279 51.535 708.727 45.95 703.225 42.666C697.722 39.382 687.822 34.018 681.225 30.746C674.627 27.474 663.902 22.698 657.392 20.132C650.881 17.566 640.081 13.886 633.392 11.955C626.702 10.023 616.258 7.36298 610.183 6.04298C604.108 4.72298 593.983 2.92398 587.683 2.04498C580.792 1.08298 566.667 0.29698 552.229 0.0719801C539.029 -0.13302 524.179 0.114974 519.229 0.623974Z" fill="#5F00CC"></path></svg>