<svg xmlns="http://www.w3.org/2000/svg" width="23" height="23" viewBox="0 0 23 23" fill="none"><path fill-rule="evenodd" clip-rule="evenodd" d="M6.4293 22.5278C6.57152 22.6045 6.73045 22.6451 6.89207 22.6459C7.08508 22.6444 7.2734 22.5862 7.43361 22.4785L13.0951 18.7075H17.7228C18.3693 18.7075 19.0095 18.5801 19.6068 18.3327C20.2041 18.0853 20.7468 17.7227 21.204 17.2655C21.6611 16.8084 22.0238 16.2656 22.2712 15.6684C22.5186 15.0711 22.6459 14.4309 22.6459 13.7844V5.90745C22.6459 5.26094 22.5186 4.62077 22.2712 4.02347C22.0238 3.42618 21.6611 2.88346 21.204 2.42631C20.7468 1.96916 20.2041 1.60653 19.6068 1.35912C19.0095 1.11171 18.3693 0.984375 17.7228 0.984375H5.90745C4.60177 0.984375 3.34957 1.50305 2.42631 2.42631C1.50305 3.34957 0.984375 4.60177 0.984375 5.90745V13.7844C0.984375 15.0901 1.50305 16.3423 2.42631 17.2655C2.88346 17.7227 3.42618 18.0853 4.02347 18.3327C4.62077 18.5801 5.26094 18.7075 5.90745 18.7075V21.6613C5.90793 21.8394 5.95671 22.0141 6.04861 22.1667C6.14051 22.3192 6.27208 22.444 6.4293 22.5278ZM3.81877 3.81877C4.37272 3.26481 5.12404 2.95361 5.90745 2.95361H17.7228C18.5062 2.95361 19.2576 3.26481 19.8115 3.81877C20.3655 4.37272 20.6767 5.12404 20.6767 5.90745V13.7844C20.6767 14.5678 20.3655 15.3191 19.8115 15.8731C19.2576 16.427 18.5062 16.7382 17.7228 16.7382H12.7998C12.6107 16.7279 12.4227 16.7724 12.2582 16.8662L7.87668 19.8201V17.7228C7.87668 17.4617 7.77295 17.2113 7.58829 17.0266C7.40364 16.842 7.1532 16.7382 6.89207 16.7382H5.90745C5.12404 16.7382 4.37272 16.427 3.81877 15.8731C3.26481 15.3191 2.95361 14.5678 2.95361 13.7844V5.90745C2.95361 5.12404 3.26481 4.37272 3.81877 3.81877ZM6.89184 6.89208H16.738C16.9991 6.89208 17.2496 6.78835 17.4342 6.6037C17.6189 6.41904 17.7226 6.1686 17.7226 5.90747C17.7226 5.64633 17.6189 5.39589 17.4342 5.21124C17.2496 5.02659 16.9991 4.92285 16.738 4.92285H6.89184C6.63071 4.92285 6.38027 5.02659 6.19561 5.21124C6.01096 5.39589 5.90723 5.64633 5.90723 5.90747C5.90723 6.1686 6.01096 6.41904 6.19561 6.6037C6.38027 6.78835 6.63071 6.89208 6.89184 6.89208ZM6.89184 14.769H16.738C16.9991 14.769 17.2496 14.6652 17.4342 14.4806C17.6189 14.2959 17.7226 14.0455 17.7226 13.7844C17.7226 13.5232 17.6189 13.2728 17.4342 13.0881C17.2496 12.9035 16.9991 12.7997 16.738 12.7997H6.89184C6.63071 12.7997 6.38027 12.9035 6.19561 13.0881C6.01096 13.2728 5.90723 13.5232 5.90723 13.7844C5.90723 14.0455 6.01096 14.2959 6.19561 14.4806C6.38027 14.6652 6.63071 14.769 6.89184 14.769ZM16.738 10.8305H6.89184C6.63071 10.8305 6.38027 10.7268 6.19561 10.5421C6.01096 10.3575 5.90723 10.107 5.90723 9.84588C5.90723 9.58475 6.01096 9.33431 6.19561 9.14965C6.38027 8.965 6.63071 8.86127 6.89184 8.86127H16.738C16.9991 8.86127 17.2496 8.965 17.4342 9.14965C17.6189 9.33431 17.7226 9.58475 17.7226 9.84588C17.7226 10.107 17.6189 10.3575 17.4342 10.5421C17.2496 10.7268 16.9991 10.8305 16.738 10.8305Z" fill="#FF5900"></path></svg>