<svg xmlns="http://www.w3.org/2000/svg" width="357" height="33" viewBox="0 0 357 33" fill="none"><path d="M14.1432 15.8726H12.4908V10.4167H8.0378V25.1057H12.4348V26.7565H1.70838V25.1057H6.10537V10.4167H1.65237V15.8726H0V8.79395H14.1432V15.8726Z" fill="#FF5900"></path><path d="M30.8867 25.1617H33.5473V26.7565H26.6857V25.1617H29.0103V18.5306C29.0103 16.4322 27.974 15.2291 26.2096 15.2291C24.6973 15.2291 23.213 16.1244 22.2047 17.9151V25.1617H24.5293V26.7565H17.6677V25.1617H20.3283V10.3887H17.4717V8.79395H22.2047V15.6768C23.213 14.2778 24.8653 13.4385 26.7138 13.4385C29.0663 13.4385 30.8867 14.8654 30.8867 18.1669V25.1617V25.1617Z" fill="#FF5900"></path><path d="M49.1354 20.685H38.381C38.577 23.427 40.5375 25.3016 43.058 25.3016C45.0745 25.3016 46.4748 24.2943 47.231 22.5037L48.8833 23.343C47.9031 25.7213 45.7746 27.0922 43.058 27.0922C39.2772 27.0922 36.4766 24.2384 36.4766 20.2654C36.4766 16.3483 39.2492 13.4385 43.002 13.4385C46.5308 13.4385 49.1354 16.1524 49.1354 20.2654V20.685ZM38.493 19.0902H47.175C46.8109 16.6281 45.1305 15.2012 43.002 15.2012C40.7335 15.2012 38.9411 16.768 38.493 19.0902Z" fill="#FF5900"></path><path d="M72.1006 9.78122C72.1006 3.70977 75.4613 0.492188 79.3822 0.492188C83.3311 0.492188 86.6919 3.70977 86.6919 9.78122C86.6919 15.8806 83.3311 19.0982 79.3822 19.0982C75.4613 19.0982 72.1006 15.8806 72.1006 9.78122ZM84.7314 9.78122C84.7314 4.82893 82.1828 2.31082 79.3822 2.31082C76.5816 2.31082 74.061 4.82893 74.061 9.78122C74.061 14.7615 76.5816 17.2796 79.3822 17.2796C82.1828 17.2796 84.7314 14.7615 84.7314 9.78122Z" fill="#FF5900"></path><path d="M105.116 12.2442C105.116 16.1613 102.399 19.0991 98.7307 19.0991C96.9943 19.0991 95.4259 18.3996 94.5297 17.3923V22.2047H97.9745V23.7995H89.5166V22.2047H92.6533V7.37586H89.5166V5.78106H94.5297V7.31991C95.4539 6.14479 97.0783 5.44531 98.8147 5.44531C102.395 5.44531 105.116 8.35513 105.116 12.2442ZM103.208 12.2442C103.208 9.33439 101.247 7.20799 98.6426 7.20799C96.8782 7.20799 95.2259 8.18726 94.5257 9.81004V14.9582C95.1699 16.3851 96.9063 17.3364 98.5866 17.3364C101.247 17.3364 103.208 15.182 103.208 12.2442Z" fill="#FF5900"></path><path d="M122.307 15.2938C121.439 17.9518 119.506 19.0989 117.322 19.0989C114.213 19.0989 112.393 17.1124 112.393 13.5871V7.37572H108.136V5.78092H112.393V2.31152H114.269V5.78092H120.683V7.37572H114.265V13.5031C114.265 15.9933 115.385 17.3083 117.374 17.3083C118.858 17.3083 120.258 16.4409 120.791 14.5104L122.307 15.2938Z" fill="#FF5900"></path><path d="M133.814 17.1681H139.191V18.7629H126.393V17.1681H131.938V7.37547H126.981V5.78067H133.814V17.1681ZM131.042 1.89158C131.042 0.88434 131.798 0.128906 132.806 0.128906C133.814 0.128906 134.598 0.88434 134.598 1.89158C134.598 2.89883 133.814 3.68224 132.806 3.68224C131.798 3.68224 131.042 2.89883 131.042 1.89158Z" fill="#FF5900"></path><path d="M158.283 17.1685H160.019V18.7633H154.894V17.1685H156.407V9.44631C156.407 7.96342 155.818 7.23597 154.782 7.23597C153.886 7.23597 152.99 7.85151 152.374 9.08258V9.22248V17.1685H153.746V18.7633H149.153V17.1685H150.497V9.44631C150.497 7.96342 149.909 7.23597 148.845 7.23597C147.977 7.23597 147.081 7.87949 146.464 9.16652V17.1685H148.005V18.7633H142.852V17.1685H144.588V7.34788H142.852V5.75308H146.464V6.98416C147.249 5.92096 148.257 5.44531 149.349 5.44531C150.525 5.44531 151.506 5.97691 152.01 7.18001C152.878 5.97691 153.942 5.44531 155.202 5.44531C156.995 5.44531 158.283 6.59245 158.283 9.22248V17.1685Z" fill="#FF5900"></path><path d="M170.963 17.1681H176.34V18.7629H163.541V17.1681H169.086V7.37547H164.129V5.78067H170.963V17.1681ZM168.19 1.89158C168.19 0.88434 168.946 0.128906 169.954 0.128906C170.963 0.128906 171.747 0.88434 171.747 1.89158C171.747 2.89883 170.963 3.68224 169.954 3.68224C168.946 3.68224 168.19 2.89883 168.19 1.89158Z" fill="#FF5900"></path><path d="M188.002 11.6287C190.41 12.1883 191.839 13.3634 191.839 15.3779C191.839 17.6162 190.018 19.0991 187.358 19.0991C185.425 19.0991 183.801 18.3436 183.017 17.2245V18.7633H181.504V14.3706H183.017C183.605 16.3012 185.313 17.4763 187.302 17.4763C188.898 17.4763 189.934 16.6369 189.934 15.4898C189.934 14.4825 189.29 13.7271 187.526 13.3074L185.173 12.7758C182.793 12.2442 181.364 11.1251 181.364 9.16652C181.364 6.90022 183.241 5.44531 185.677 5.44531C187.498 5.44531 188.898 6.20075 189.598 7.18001V5.78106H191.11V9.83802H189.598C189.066 8.10332 187.526 7.0681 185.761 7.0681C184.361 7.0681 183.269 7.82353 183.269 9.0546C183.269 10.0059 183.941 10.7333 185.509 11.0971L188.002 11.6287Z" fill="#FF5900"></path><path d="M211.279 17.1685H213.015V18.7633H207.89V17.1685H209.403V9.44631C209.403 7.96342 208.815 7.23597 207.778 7.23597C206.882 7.23597 205.986 7.85151 205.37 9.08258V9.22248V17.1685H206.742V18.7633H202.149V17.1685H203.493V9.44631C203.493 7.96342 202.905 7.23597 201.841 7.23597C200.973 7.23597 200.077 7.87949 199.46 9.16652V17.1685H201.001V18.7633H195.848V17.1685H197.584V7.34788H195.848V5.75308H199.46V6.98416C200.245 5.92096 201.253 5.44531 202.345 5.44531C203.521 5.44531 204.502 5.97691 205.006 7.18001C205.874 5.97691 206.938 5.44531 208.198 5.44531C209.991 5.44531 211.279 6.59245 211.279 9.22248V17.1685V17.1685Z" fill="#FF5900"></path><path d="M233.937 17.832C233.937 11.6486 237.437 8.45898 241.302 8.45898C244.271 8.45898 246.483 10.4455 246.511 12.9076C246.539 14.9781 245.111 16.7967 242.674 16.9926L242.254 15.3978C243.823 15.2299 244.663 14.1947 244.663 12.9636C244.663 11.4527 243.263 10.2776 241.302 10.2776C238.53 10.2776 235.897 12.7957 235.897 17.832C235.897 22.7003 238.558 25.2744 241.358 25.2744C243.263 25.2744 245.279 24.0992 245.643 20.8537L247.492 21.1894C246.959 25.2464 244.355 27.093 241.386 27.093C237.437 27.093 233.937 23.8474 233.937 17.832Z" fill="#FF5900"></path><path d="M251.564 20.2654C251.564 16.3483 254.365 13.4385 258.146 13.4385C261.955 13.4385 264.755 16.3203 264.755 20.2654C264.755 24.1824 261.955 27.0922 258.146 27.0922C254.365 27.0922 251.564 24.1824 251.564 20.2654ZM262.823 20.2654C262.823 17.3276 260.806 15.2012 258.146 15.2012C255.485 15.2012 253.469 17.3276 253.469 20.2654C253.469 23.1752 255.485 25.3016 258.146 25.3016C260.806 25.3016 262.823 23.1472 262.823 20.2654Z" fill="#FF5900"></path><path d="M283.363 25.1617H285.1V26.7565H279.974V25.1617H281.487V17.4395C281.487 15.9566 280.899 15.2291 279.862 15.2291C278.966 15.2291 278.07 15.8447 277.454 17.0757V17.2156V25.1617H278.826V26.7565H274.233V25.1617H275.577V17.4395C275.577 15.9566 274.989 15.2291 273.925 15.2291C273.057 15.2291 272.161 15.8727 271.544 17.1597V25.1617H273.085V26.7565H267.932V25.1617H269.668V15.341H267.932V13.7462H271.544V14.9773C272.329 13.9141 273.337 13.4385 274.429 13.4385C275.605 13.4385 276.586 13.9701 277.09 15.1732C277.958 13.9701 279.022 13.4385 280.282 13.4385C282.075 13.4385 283.363 14.5856 283.363 17.2156V25.1617V25.1617Z" fill="#FF5900"></path><path d="M302.224 20.2374C302.224 24.1544 299.507 27.0922 295.838 27.0922C294.102 27.0922 292.533 26.3928 291.637 25.3855V30.1979H295.082V31.7927H286.624V30.1979H289.761V15.369H286.624V13.7742H291.637V15.3131C292.561 14.138 294.186 13.4385 295.922 13.4385C299.503 13.4385 302.224 16.3483 302.224 20.2374ZM300.315 20.2374C300.315 17.3276 298.355 15.2012 295.75 15.2012C293.986 15.2012 292.333 16.1804 291.633 17.8032V22.9513C292.277 24.3783 294.014 25.3296 295.694 25.3296C298.355 25.3296 300.315 23.1752 300.315 20.2374Z" fill="#FF5900"></path><path d="M320.124 25.0218V26.6166C319.732 26.8404 319.172 26.9244 318.696 26.9244C317.239 26.9244 316.091 26.1689 315.727 24.8819C314.579 26.2529 312.814 27.0922 310.826 27.0922C308.417 27.0922 306.457 25.7772 306.457 23.371C306.457 21.1607 308.081 19.7058 310.91 19.37L315.363 18.8384V18.2509C315.363 16.3483 314.299 15.2012 312.338 15.2012C310.602 15.2012 309.286 16.1524 308.726 17.9151L306.961 17.2996C307.689 14.9773 309.734 13.4385 312.478 13.4385C315.363 13.4385 317.239 15.0333 317.239 18.111V23.0633C317.239 24.4622 317.884 25.1897 319.088 25.1897C319.424 25.1897 319.816 25.1057 320.124 25.0218ZM315.363 23.0073V20.4052L311.05 21.0208C309.258 21.2726 308.389 22.056 308.389 23.2871C308.389 24.5461 309.398 25.3575 311.05 25.3575C312.702 25.3575 314.327 24.4902 315.363 23.0073Z" fill="#FF5900"></path><path d="M336.904 25.1617H339.564V26.7565H332.703V25.1617H335.027V18.5307C335.027 16.4322 333.991 15.2291 332.226 15.2291C330.714 15.2291 329.23 16.1245 328.222 17.9151V25.1617H330.546V26.7565H323.685V25.1617H326.345V15.341H323.685V13.7462H328.222V15.6768C329.23 14.2778 330.882 13.4385 332.731 13.4385C335.083 13.4385 336.904 14.8654 336.904 18.1669V25.1617V25.1617Z" fill="#FF5900"></path><path d="M357 13.7744V15.3692H354.648L349.298 28.967C348.458 31.0934 347.03 32.1286 345.042 32.1286C342.857 32.1286 341.093 30.8136 340.561 28.6872L342.101 27.9038C342.717 29.7504 343.809 30.3939 345.098 30.3939C346.218 30.3939 347.142 29.8344 347.758 28.3235L348.122 27.3722L343.249 15.3692H340.869V13.7744H347.786V15.3692H345.238L349.018 25.1339L352.771 15.3692H350.307V13.7744H357V13.7744Z" fill="#FF5900"></path></svg>