<svg width="19" height="18" viewBox="0 0 19 18" fill="none" xmlns="http://www.w3.org/2000/svg">
<path d="M4.68583 18H0.949219V5.97318H4.68583V18ZM2.79743 4.36425C1.63225 4.36425 0.667969 3.35866 0.667969 2.15196C0.667969 1.38771 1.06975 0.663687 1.71261 0.301676C2.39565 -0.100559 3.2394 -0.100559 3.88225 0.301676C4.56529 0.663687 4.96708 1.38771 4.96708 2.15196C4.96708 3.35866 4.00279 4.36425 2.79743 4.36425ZM14.9314 18V12.1676C14.9314 10.7598 14.8912 8.98994 12.9626 8.98994C11.034 8.98994 10.7528 10.4782 10.7528 12.0469V18H7.01618V5.97318H10.5921V7.62235H10.6323C11.1546 6.69721 12.3599 5.69162 14.168 5.69162C17.9448 5.69162 18.668 8.18548 18.668 11.4034V18H14.9314Z" fill="#FF5900"/>
</svg>
