<svg xmlns="http://www.w3.org/2000/svg" xmlns:xlink="http://www.w3.org/1999/xlink" width="512" height="512" x="0" y="0" viewBox="0 0 73 73" style="enable-background:new 0 0 512 512" xml:space="preserve" class=""><g><path d="m49.2 19.172 4.761-.663-1.305 4.947a.75.75 0 0 0 1.45.383l1.245-4.719a78.523 78.523 0 0 0 3.38 3.34c.144.132.327.198.51.198.677 0 1.01-.837.508-1.3a76.613 76.613 0 0 1-3.245-3.202l5.201-.724a.75.75 0 0 0-.207-1.487l-5.511.767 1.442-5.466a.75.75 0 0 0-1.45-.383l-1.382 5.238a87.791 87.791 0 0 1-3.428-4.023.751.751 0 0 0-1.173.936 89.307 89.307 0 0 0 3.45 4.052l-4.453.62a.75.75 0 0 0 .207 1.486z" fill="#2a1e2a" opacity="1" data-original="#000000" class=""></path><path d="M5.304 40.01c.466.26 1.749.847 2.172 1.025 2.001.835 1.438 1.157 1.159 2.469-.147.63-.66 1.62-.66 2.322l.004.48c.107.877.976 1.58.969 1.867 0 0-.013.04-.09.115a.746.746 0 0 0-.187.307.746.746 0 0 0-.067.114c-.168.353-.562.7-.737 1.27-.533 1.572.31 3.489 1.948 4.453 3.934 2.398 10.098-.69 9.97 4.33-.028 1.074-.452 2.092-.931 3.241a.75.75 0 0 0 .326.942c.222.125.46.232.688.35.263.284 1.004.866 1.465 1.13C26.403 67.32 32.418 68 38.058 68.42c9.07.677 16.499.197 16.594-1.072.114-1.53-5.791-2.206-7.38-2.504.556-1.09-1.168-3.324-1.62-4.24-1.048-2.123-.81-4.7.086-6.892.787-1.924 2.034-3.611 3.322-5.25 1.884-.923 3.335-2.348 4.44-4.12 1.841-2.962 3.094-8.376 3.436-11.812 2.857-.448 5.581-1.658 7.674-3.642 2.683-2.543 4.496-6.6 4.233-10.32.646-12.206-14.058-19.416-23.824-9.943-3.644-2.08-7.193-3.186-12.26-2.948-5.27.259-10.585 1.534-15.803 3.79-7.662 3.347-8.316.953-9.162 1.948a.75.75 0 0 0-.129.75c.88 2.33 2.308 4.173 4.331 5.572-1.579 2.365-2.343 6.082-2.152 8.904 0 .496.123.979.278 1.645.442 2.119.226 1.94-1.107 3.986a7.76 7.76 0 0 1-.71.83c-.779.831-1.176 1.428-2.7 2.713-2.098 1.821-1.73 3.356-.301 4.196zM52.983 6.006c6.532-1.282 12.887 2.99 14.168 9.522 1.282 6.537-2.99 12.897-9.52 14.178-4.704.927-9.66-1.13-12.337-5.103-2.39-3.544-2.899-8.176-1.299-11.8 1.547-3.503 4.822-5.98 8.988-6.797zM9.585 12.8c2.708.124 5.423-.845 7.969-1.956 5.05-2.185 10.19-3.418 15.277-3.67 4.204-.195 7.742.623 11.155 2.586-3.289 4.07-3.836 9.927-2.017 14.7.875 2.297 2.8 4.39 4.789 5.834 2.264 1.646 4.697 2.648 8.65 2.409-.146 1.231-.382 2.552-.764 4.255-.919 3.976-2.285 8.018-5.904 9.998-2.59 1.43-5.041 1.062-7.475-.762-4.46-3.369 3.534-13.973-3.927-15.896-2.223-.592-3.98.55-4.498 2.583-.172.618-.244 1.416-.389 2.719-.044.335-.463.648-.93.686-.518.063-.708-1.176-.687-1.735.064-2.44.404-4.947.067-7.444-.409-2.98-1.833-5.46-3.908-6.801-2.97-1.917-6.786-1.356-10.94-2.163-.322-.223-4.366-1.267-6.468-5.343zm-.703 21.905c.5-.603.875-.879 1.413-1.653a.866.866 0 0 0 .083-.127c1.24-1.974 1.802-2.122 1.212-4.944-.22-.952-.246-1.12-.247-1.39-.18-2.7.583-6 1.823-7.903 3.102 1.947 9.835.826 13.013 2.878 1.707 1.104 2.886 3.198 3.236 5.743.586 4.354-.987 8.278.83 9.986 1.22 1.143 3.476.139 3.695-1.512l.075-.67c.095-.86.158-1.427.274-1.846.336-1.316 1.326-1.879 2.67-1.518 1.576.406 2.307 1.412 2.232 3.082-.174 4.863-2.423 9.846 1.172 12.563 1.683 1.26 3.338 1.902 4.992 1.941-2.534 4.005-4.107 7.105-2.378 11.756l.003-.001a.861.861 0 0 0 .07.142c.982 2.39 1.273 2.07 1.09 2.84a.727.727 0 0 0-.062.115c-.128.222-.365.484-.856.564-.316.054-.623.107-.907.131-.04 0-.08.003-.12.01-4.774.774-5.484.507-7.837.507-.1 0-.91-.041-.809-.041-4.469-.422-9.042-1.305-13.052-3.405.4-.986.758-2.013.787-3.152.042-1.64-.624-3.081-1.792-3.863-2.234-1.448-6.508-.332-8.906-1.793-.905-.533-1.638-1.683-1.293-2.704.06-.19.629-.93.758-1.234 1.109-1.306-.499-2.703-.577-2.991.051-.317-.148-.193.302-1.389.117-.31.238-.63.323-.997.23-1.076.786-2.176-.44-3.257-.477-.45-1.076-.7-1.604-.921-.396-.166-1.652-.747-2.008-.944-1.306-.765.693-1.52 2.835-4.003z" fill="#2a1e2a" opacity="1" data-original="#000000" class=""></path></g></svg>