<svg xmlns="http://www.w3.org/2000/svg" xmlns:xlink="http://www.w3.org/1999/xlink" width="512" height="512" x="0" y="0" viewBox="0 0 64 64" style="enable-background:new 0 0 512 512" xml:space="preserve" class=""><g><path d="M50.94 47.77c-8.91.093-17.825.935-26.754.533-.98.06-9.995-.641-8.927.92-.91-.121-1.978.593-1.58 1.672a6.05 6.05 0 0 1-.193 5.375 3.791 3.791 0 0 1-4.125 1.585c-1.626-.528-2.184-2.309-2.436-3.83-1.146-11.117-.895-22.397-.534-33.56.042-5.124.703-10.263.264-15.37C4.872 1.622 4.858 20.054 4.68 20.96c-.285 10.633-.483 21.312.116 31.934.254 3.512 1.793 7.578 6.041 7.202 4.908-.433 6.586-5.766 5.486-9.93a1.26 1.26 0 0 0-.428-.68c5.684 1.161 11.606.575 17.378.654a157.944 157.944 0 0 0 16.915-.71c.37 8.381-5.473 8.876-12.196 9.392-7.14.292-14.222-.704-21.353.19-1.393.176-1.437 2.378 0 2.227 7.768-1.23 28.934 1.922 33.645-4.057 1.98-2.558 1.556-5.633 1.44-8.627a.798.798 0 0 0-.785-.784z" fill="#2a1e2a" opacity="1" data-original="#000000"></path><path d="M47.182 46.175c.706-4.762.493-9.666.855-14.47a6.784 6.784 0 0 1-1.515.845c-.254 4.446-1.09 8.959-.952 13.407.045.872 1.438 1.176 1.612.218zM7.504 5.797a11.728 11.728 0 0 0 3.586.229c4.295-.056 8.574-.348 12.867-.54 5.427-.158 10.856-.269 16.281-.468a20.735 20.735 0 0 1 5.303.105 3.338 3.338 0 0 1 1.2-1.082 10.298 10.298 0 0 0-3.552-.48c-8.551.022-17.113.843-25.666.788-.934.124-12.336-.433-10.02 1.448zM43.1 29.63a.724.724 0 0 0 .07-.168z" fill="#2a1e2a" opacity="1" data-original="#000000"></path><path d="M52.188 7.436a9.055 9.055 0 0 0-3.278-1.283 5.776 5.776 0 0 0-3.671.008 15.164 15.164 0 0 0-6.697 2.23c-4.345 3.31-4.229 11.095.799 13.71.858.542 2.472 1.058 2.538 2.268-2.553 1.502-1.276 4.627 1.379 4.943-.842 1.723.956 3.286 2.675 2.818a2.234 2.234 0 0 0 1.495-2.987 5.042 5.042 0 0 0 2.427-1.172 2.357 2.357 0 0 0-.262-3.927c1.544-2.245 4.39-3.386 5.603-5.94 1.84-3.656.296-8.4-3.008-10.668zm-6.705 22.481c.02 1.17-1.115.615-1.029-.317l.025.185a.932.932 0 0 1 .006-.34 9.643 9.643 0 0 0 .983-.02 2.65 2.65 0 0 0 .04.677zm2.913-3.461-.035.12a5.644 5.644 0 0 1-3.5 1.106c-.783.034-2.377.105-2.733-.835-.172-.51.376-.873.754-1.088a15.178 15.178 0 0 0 5.053.036 1.762 1.762 0 0 0 .48.47c.023.15-.012-.016-.019.19zm.074-.146-.001-.002c.033.035.042.045 0 .002zm4.923-9.597c-1.216 2.912-5.09 3.893-6.134 6.864-1.062.09-2.148.032-3.21.039-.377-1.955-2.384-2.646-3.868-3.577-3.544-2.04-3.841-7.495-.77-10.092 1.55-1.458 3.639-1.777 5.648-2.007a.975.975 0 0 0 1.06.258c4.334-.812 8.817 4.33 7.274 8.515zM54.06 8.163c.981-.154 1.52-1.177 2.205-1.803.57-.704 2.028-2.027 1.233-2.94-1.197-1.152-3.6 2.388-4.278 3.279a.986.986 0 0 0 .84 1.464zM59.263 8.105c-.999-.653-2.012.478-2.89.884a.886.886 0 0 0 .21 1.607.909.909 0 0 0 .676-.089 13.338 13.338 0 0 0 1.818-.886c.477-.308.747-1.161.186-1.516zM51.143 6.074c.33-.43.217-1.044.358-1.55.066-.501.2-1.13-.18-1.536a.839.839 0 0 0-1.383.365 10.332 10.332 0 0 0 .004 2.224.708.708 0 0 0 1.2.497zM17.912 35.738c-.942-.593-2.524-.723-3.197.325-3.947-.134-5.586 5.177-2.56 7.592a4.476 4.476 0 0 0 5.348.225c2.51-1.8 3.303-6.336.41-8.142zm-2.806 7.296c-3.87 0-3.863-6.004 0-6.004 3.87 0 3.864 6.004 0 6.004zM22.486 24.28c1.38-1.16-1.083-2.796-1.933-3.488a14.084 14.084 0 0 0 1.518-2.67.723.723 0 0 0-.185-.922.709.709 0 0 0-.938.056c-.675.778-1.33 1.535-1.956 2.36a18.428 18.428 0 0 0-2.643-1.541.914.914 0 1 0-.923 1.578c.78.557 1.404 1.09 2.16 1.636-.624.89-1.818 1.587-1.953 2.724a1.01 1.01 0 0 0 1.26.96c1.065-.367 1.617-1.583 2.346-2.384.966.65 1.91 2.288 3.247 1.69zM39.692 36.35a.994.994 0 0 0-1.376 0 34.96 34.96 0 0 0-2.34 2.34 13.256 13.256 0 0 0-2.238-1.297.612.612 0 0 0-.738.957 17.572 17.572 0 0 0 1.717 1.792 8.123 8.123 0 0 0-1.568 2.266 1.047 1.047 0 0 0 1.524 1.172 10.483 10.483 0 0 0 1.733-1.936c.827.569 1.43 1.683 2.51 1.73a.886.886 0 0 0 .884-.885c-.137-1.153-1.335-1.68-2.086-2.425.656-.783 1.307-1.569 1.978-2.338a.992.992 0 0 0 0-1.376zM35.683 23.517l-4.046 1.5c-1.212.447-.737 2.347.543 1.969q.987-.292 1.976-.58c-2.139 5.458-6.72 7.917-12.258 8.813a.71.71 0 0 0 0 1.357c5.515.73 10.974-2.984 13.684-7.662.631 2.703 3.244 1.907 2.177-.559a13.738 13.738 0 0 1-.634-3.396c.164-.797-.542-1.776-1.442-1.442z" fill="#2a1e2a" opacity="1" data-original="#000000"></path></g></svg>