<svg xmlns="http://www.w3.org/2000/svg" width="64" height="58" viewBox="0 0 64 58" fill="none"><circle cx="29" cy="29" r="29" fill="#FF5900"></circle><path d="M26.5798 27.3501C26.6179 27.3442 26.6599 27.3303 26.7029 27.3323C27.0343 27.3457 27.3667 27.3669 27.6976 27.3778C28.3698 27.4001 29.0435 27.4545 29.7157 27.4856C29.9398 27.496 30.1649 27.5213 30.3894 27.5341C30.9919 27.5687 31.5943 27.6009 32.1968 27.634C32.4357 27.6474 32.6751 27.6607 32.914 27.6736C33.2924 27.6939 33.6708 27.7097 34.0497 27.7339C34.5295 27.7651 35.0103 27.8067 35.49 27.8363C36.093 27.8729 36.695 27.9011 37.2974 27.9348C37.5982 27.9516 37.8999 27.9719 38.2006 27.9887C38.5716 28.0095 38.9421 28.0258 39.313 28.0475C39.545 28.0609 39.7775 28.0832 40.0095 28.096C40.0688 28.0995 40.1282 28.0841 40.1841 28.0698C40.193 28.0673 40.195 28.0154 40.1816 28.0001C40.1638 27.9793 40.1272 27.9639 40.099 27.961C39.9442 27.9447 39.7889 27.9288 39.6346 27.9194C39.317 27.9001 38.9999 27.8868 38.6824 27.8675C38.4272 27.8517 38.1714 27.8289 37.9157 27.8116C37.6219 27.7918 37.3286 27.775 37.0348 27.7567C36.965 27.7522 36.8953 27.7468 36.826 27.7428C36.2241 27.7107 35.6221 27.6795 35.0201 27.6464C34.804 27.6345 34.5873 27.6167 34.3712 27.6039C33.7984 27.5707 33.2261 27.5405 32.6533 27.5064C32.1973 27.4792 31.7412 27.4466 31.2852 27.4184C30.7831 27.3877 30.2816 27.3605 29.78 27.3298C29.5248 27.314 29.2696 27.2903 29.0143 27.2744C28.3792 27.2349 27.7446 27.1993 27.11 27.1587C26.9399 27.1478 26.7692 27.1255 26.5986 27.1043C26.4245 27.0825 26.3161 26.9781 26.2409 26.8362C26.2558 26.808 26.2622 26.7872 26.2756 26.7719C26.5264 26.4791 26.7756 26.1848 27.0304 25.8949C27.3915 25.4834 27.7565 25.0753 28.12 24.6658C28.353 24.4036 28.5845 24.1405 28.819 23.8793C29.0534 23.6181 29.2918 23.3609 29.5248 23.0988C29.7766 22.8158 30.0224 22.5285 30.2732 22.245C30.4592 22.0353 30.6506 21.8295 30.838 21.6203C31.2882 21.1193 31.7378 20.6177 32.1869 20.1156C32.4535 19.8174 32.7181 19.5181 32.9823 19.2184C33.0194 19.1763 33.055 19.1323 33.0812 19.0834C33.0906 19.066 33.0777 19.022 33.0599 19.0082C33.0401 18.9928 32.9927 18.9854 32.9758 18.9973C32.9234 19.0334 32.8764 19.0774 32.8339 19.1239C32.5831 19.3989 32.3333 19.6739 32.0855 19.9514C31.7961 20.2759 31.5098 20.6034 31.2209 20.9283C30.7643 21.4422 30.3078 21.9557 29.8493 22.4676C29.6104 22.7342 29.365 22.9949 29.1271 23.262C28.8056 23.6241 28.4905 23.9911 28.169 24.3531C27.899 24.6573 27.6239 24.9576 27.3494 25.2588C27.2361 25.3835 27.1184 25.5042 27.0052 25.6288C26.7742 25.8835 26.5461 26.1407 26.3151 26.3955C26.2301 26.489 26.1425 26.5805 26.0535 26.6705C26.0258 26.6987 25.9897 26.7195 25.9422 26.7551C25.9259 26.7012 25.9066 26.667 25.9076 26.6354C25.9189 26.3035 25.9298 25.9711 25.9476 25.6402C25.9748 25.1361 26.0075 24.6336 26.0367 24.1301C26.0416 24.044 26.0401 23.9565 26.0461 23.8704C26.0728 23.4683 26.1025 23.0666 26.1282 22.6645C26.148 22.3558 26.1623 22.0462 26.1816 21.737C26.2024 21.3992 26.2271 21.0624 26.2479 20.7245C26.2706 20.3506 26.2899 19.9767 26.3122 19.6027C26.3379 19.1714 26.3661 18.7406 26.3918 18.3097C26.3973 18.2163 26.3849 18.1183 26.4032 18.0288C26.4408 17.8458 26.4343 17.6568 26.4418 17.4694C26.4442 17.4115 26.4452 17.3536 26.4492 17.2963C26.4754 16.9307 26.5051 16.5662 26.5283 16.2002C26.5501 15.8554 26.5639 15.5092 26.5842 15.1644C26.6045 14.8191 26.6307 14.4754 26.6515 14.1301C26.6767 13.7132 26.697 13.2957 26.7242 12.8792C26.7603 12.3262 26.8033 11.7742 26.838 11.2207C26.8662 10.7681 26.8869 10.314 26.9092 9.86047C26.9117 9.81052 26.9067 9.75907 26.8973 9.70862C26.8944 9.69279 26.8632 9.66658 26.8469 9.66608C26.8211 9.66509 26.785 9.67499 26.7742 9.69279C26.7568 9.72099 26.7529 9.75907 26.7504 9.79469C26.7385 9.97424 26.7301 10.1543 26.7193 10.3343C26.7054 10.5643 26.6896 10.7938 26.6757 11.0238C26.6574 11.3256 26.6406 11.6278 26.6233 11.9295C26.6055 12.2387 26.5887 12.5483 26.5699 12.8574C26.5422 13.3026 26.5125 13.7473 26.4838 14.192C26.4803 14.2493 26.4853 14.3087 26.4779 14.3651C26.424 14.7984 26.4264 15.2416 26.3908 15.6778C26.3864 15.7352 26.3908 15.7941 26.3864 15.8514C26.3587 16.2318 26.327 16.6112 26.3023 16.9916C26.2731 17.4437 26.2503 17.8972 26.2236 18.3498C26.19 18.9251 26.1559 19.5008 26.1217 20.0761C26.1173 20.1478 26.1118 20.2195 26.1064 20.2912C26.0837 20.6068 26.0564 20.9214 26.0386 21.2375C26.0169 21.6258 26.0025 22.015 25.9847 22.4043C25.9842 22.4186 25.9832 22.433 25.9803 22.4473C25.91 22.8119 25.9476 23.1957 25.9001 23.5657C25.8576 23.8981 25.8635 24.2414 25.8413 24.5792C25.8077 25.0961 25.7696 25.6125 25.731 26.1289C25.7142 26.351 25.6954 26.5726 25.6711 26.7932C25.6553 26.9376 25.5579 27.0029 25.405 26.9747C25.2042 26.9376 25.0034 26.896 24.8031 26.8525C24.5102 26.7882 24.2184 26.7204 23.9261 26.6542C23.5259 26.5637 23.1253 26.4746 22.7251 26.3821C22.3868 26.304 22.049 26.2219 21.7106 26.1432C21.2956 26.0468 20.8796 25.9538 20.4647 25.8553C20.1268 25.7752 19.7905 25.6852 19.4521 25.6051C19.1296 25.5289 18.8052 25.4621 18.4822 25.3874C17.9668 25.2687 17.4519 25.148 16.9369 25.0268C16.5299 24.9309 16.1228 24.8334 15.7152 24.737C15.2928 24.6366 14.8704 24.5342 14.4475 24.4357C13.8242 24.2908 13.2005 24.1494 12.5778 24.0039C12.2469 23.9268 11.9174 23.8422 11.587 23.764C11.126 23.6552 10.6645 23.5484 10.2035 23.4415C10.0883 23.4148 9.97255 23.3881 9.85631 23.3664C9.8108 23.3575 9.76332 23.3575 9.7188 23.3614C9.70199 23.3629 9.68072 23.3856 9.67973 23.4015C9.67874 23.4188 9.69654 23.4509 9.71188 23.4564C9.81624 23.494 9.92111 23.5335 10.0279 23.5598C10.3811 23.6458 10.7358 23.7264 11.0894 23.81C11.2586 23.8501 11.4273 23.8936 11.5964 23.9327C11.9347 24.0109 12.2731 24.086 12.6114 24.1647C12.7731 24.2023 12.9334 24.2483 13.0952 24.2854C13.6951 24.4234 14.2961 24.5579 14.8961 24.6969C15.3037 24.7914 15.7108 24.8918 16.1178 24.9878C16.2098 25.0095 16.3033 25.0229 16.3953 25.0451C16.7252 25.1258 17.0547 25.2113 17.3851 25.29C17.7615 25.3795 18.1384 25.4626 18.5153 25.5492C18.6771 25.5863 18.8378 25.6258 18.9996 25.6634C19.3305 25.7401 19.6614 25.8153 19.9923 25.8929C20.3227 25.9701 20.6526 26.0512 20.983 26.1279C21.4138 26.2278 21.8452 26.3238 22.276 26.4252C22.5985 26.5008 22.9205 26.5839 23.243 26.6606C23.6041 26.7462 23.9656 26.8263 24.3267 26.9124C24.4266 26.9361 24.5241 26.9732 24.624 26.9999C24.8609 27.0632 25.0988 27.1231 25.3358 27.1864C25.365 27.1943 25.3917 27.2136 25.4134 27.2245C25.452 27.3061 25.4253 27.3605 25.3833 27.4114C25.2942 27.5198 25.2096 27.6316 25.1171 27.7369C24.8164 28.0797 24.5132 28.421 24.21 28.7618C23.9394 29.066 23.6679 29.3687 23.3968 29.6719C23.1767 29.9172 22.9566 30.1626 22.736 30.4079C22.501 30.6686 22.2646 30.9278 22.0302 31.1889C21.7729 31.4763 21.5192 31.7667 21.2605 32.0531C21.0117 32.3291 20.7565 32.6001 20.5087 32.8766C20.2747 33.1378 20.0487 33.4054 19.8162 33.6675C19.5412 33.9772 19.2622 34.2833 18.9872 34.593C18.9506 34.634 18.9239 34.684 18.8991 34.7335C18.8922 34.7473 18.9036 34.7849 18.916 34.7913C18.9407 34.8037 18.9822 34.8141 18.9986 34.8032C19.0451 34.7715 19.0861 34.732 19.1232 34.6904C19.5031 34.268 19.881 33.8441 20.2604 33.4212C20.4152 33.2491 20.573 33.0794 20.7283 32.9078C20.8787 32.7411 21.028 32.5734 21.1774 32.4057C21.3406 32.2227 21.5029 32.0382 21.6671 31.8557C21.7888 31.7202 21.9124 31.5856 22.0361 31.4516C22.1785 31.2968 22.324 31.1439 22.4644 30.9871C22.8146 30.5944 23.1624 30.2002 23.5116 29.8064C23.6189 29.6858 23.7262 29.5656 23.8356 29.4464C24.0685 29.1931 24.3035 28.9418 24.536 28.6881C24.8209 28.378 25.1038 28.0663 25.3887 27.7557C25.4065 27.7359 25.4317 27.7181 25.4713 27.7537C25.4693 27.7775 25.4708 27.8067 25.4644 27.8334C25.4075 28.0747 25.3516 28.3166 25.2903 28.5565C25.2185 28.8375 25.1409 29.1164 25.0677 29.3969C24.9519 29.8421 24.8392 30.2882 24.7224 30.7329C24.6581 30.9792 24.5864 31.2226 24.5216 31.4689C24.4494 31.7424 24.3831 32.0174 24.3109 32.291C24.2298 32.5986 24.1442 32.9053 24.0626 33.2125C24.0008 33.445 23.9429 33.6784 23.8801 33.9104C23.8044 34.1899 23.7233 34.4678 23.6476 34.7473C23.5813 34.9931 23.5215 35.2409 23.4567 35.4868C23.3953 35.7193 23.33 35.9503 23.2677 36.1827C23.1906 36.4691 23.1159 36.7565 23.0377 37.0429C22.9803 37.2546 22.917 37.4638 22.8611 37.676C22.7518 38.0935 22.6489 38.5129 22.5386 38.9299C22.3685 39.5724 22.1944 40.2135 22.0213 40.8555C21.9787 41.0123 21.9327 41.1681 21.8907 41.3249C21.8506 41.4753 21.81 41.6256 21.7764 41.778C21.7636 41.8368 21.7349 41.9026 21.8135 41.9694C21.8353 41.9565 21.8689 41.9486 21.8803 41.9279C21.91 41.873 21.9362 41.8151 21.9525 41.7542C22.0222 41.4946 22.0851 41.2329 22.1548 40.9732C22.2651 40.5637 22.3799 40.1556 22.4912 39.7465C22.5802 39.4196 22.6663 39.0912 22.7553 38.7637C22.8033 38.5866 22.8562 38.411 22.9027 38.233C23.0115 37.8155 23.1154 37.3961 23.2267 36.9796C23.3474 36.529 23.476 36.0813 23.5976 35.6307C23.7124 35.2078 23.8232 34.7834 23.9345 34.359C24.0131 34.0578 24.0893 33.7561 24.1675 33.4548C24.2298 33.2149 24.2901 32.975 24.3564 32.7366C24.4242 32.4918 24.5013 32.2499 24.5676 32.0046C24.6764 31.602 24.7793 31.1973 24.8866 30.7942C24.9594 30.5212 25.0365 30.2496 25.1092 29.9761C25.1745 29.7303 25.2324 29.482 25.3011 29.2376C25.4159 28.8295 25.5361 28.4235 25.6558 28.0174C25.7201 27.7997 25.7221 27.8042 25.9659 27.8378C26.053 27.8497 26.1138 27.8853 26.1633 27.9541C26.2226 28.0372 26.2865 28.1178 26.3443 28.2019C26.6208 28.6025 26.8958 29.0037 27.1709 29.4053C27.3791 29.7095 27.5873 30.0137 27.7926 30.3194C27.9583 30.5662 28.1181 30.816 28.2833 31.0633C28.6528 31.6173 29.0247 32.1703 29.3947 32.7243C29.5471 32.9523 29.6935 33.1828 29.8468 33.4103C30.0966 33.7808 30.3508 34.1488 30.6001 34.5193C30.6961 34.6622 30.7822 34.8101 30.8781 34.9531C31.115 35.3038 31.3579 35.652 31.5943 36.0027C31.7516 36.2366 31.902 36.4741 32.0573 36.709C32.2898 37.0617 32.5228 37.4149 32.7577 37.7665C33.0753 38.2419 33.3943 38.7167 33.7143 39.1906C33.881 39.4374 34.0522 39.6817 34.2179 39.9296C34.3395 40.1116 34.4518 40.299 34.574 40.4811C34.9756 41.0796 35.3842 41.6746 35.7809 42.2756C36.0178 42.6347 36.2706 42.9849 36.4976 43.3499C36.736 43.7338 37.012 44.1003 37.2668 44.4772C37.4908 44.8081 37.7065 45.1439 37.9281 45.4758C38.2629 45.9774 38.6008 46.477 38.9356 46.9785C39.1834 47.35 39.4288 47.7225 39.6756 48.0944C39.7147 48.1533 39.7533 48.2121 39.7968 48.2685C39.8423 48.3274 39.9071 48.3492 39.9353 48.3195C39.9729 48.2799 39.9447 48.2384 39.9195 48.1993C39.8097 48.0281 39.7013 47.8565 39.5881 47.6878C39.457 47.4925 39.3185 47.3015 39.1889 47.1056C39.0811 46.9429 38.9846 46.7742 38.8763 46.6115C38.5943 46.1876 38.3094 45.7657 38.0245 45.3433C37.8623 45.1029 37.6956 44.8645 37.5343 44.6236C37.4211 44.4544 37.3187 44.2798 37.2044 44.1112C36.9492 43.7347 36.688 43.3618 36.4333 42.9849C36.3458 42.8553 36.276 42.7158 36.188 42.5867C35.9411 42.2232 35.6869 41.8641 35.4406 41.5005C35.3436 41.358 35.2655 41.2057 35.168 41.0637C34.8535 40.6047 34.528 40.1511 34.2362 39.6798C34.109 39.4745 33.9606 39.2786 33.8256 39.0768C33.6119 38.7578 33.4027 38.4368 33.189 38.1177C33.0367 37.8897 32.8794 37.6641 32.7275 37.4361C32.6232 37.2798 32.5267 37.1201 32.4219 36.9637C32.0202 36.3652 31.6131 35.7692 31.2145 35.1692C30.9676 34.7978 30.702 34.4362 30.473 34.0553C30.3568 33.8619 30.2168 33.6794 30.0907 33.4909C29.877 33.1719 29.6668 32.8514 29.4536 32.5319C29.1489 32.0763 28.8427 31.6212 28.5375 31.1657C28.1972 30.6582 27.8569 30.1507 27.5176 29.6427C27.2782 29.2841 27.0398 28.9255 26.8038 28.5654C26.6708 28.3631 26.5382 28.1598 26.4151 27.9531C26.2993 27.7587 26.3048 27.7562 26.4774 27.6429C26.4888 27.6355 26.5056 27.636 26.5328 27.6296C26.5817 27.6459 26.6436 27.6612 26.7019 27.6865C26.8785 27.7621 27.0531 27.8423 27.2287 27.9199C27.4775 28.0302 27.7263 28.14 27.9751 28.2508C28.1067 28.3092 28.2373 28.37 28.3688 28.4284C28.7279 28.5867 29.088 28.7425 29.4466 28.9028C29.8488 29.0823 30.2494 29.2668 30.6511 29.4473C31.0745 29.6378 31.4989 29.8257 31.9223 30.0157C32.1632 30.124 32.4031 30.2348 32.6439 30.3426C32.8556 30.4376 33.0688 30.5286 33.2805 30.6236C33.514 30.7289 33.7455 30.8397 33.9794 30.9436C34.3089 31.09 34.6398 31.2315 34.9692 31.3769C35.2032 31.4803 35.4361 31.5876 35.6691 31.6935C35.9243 31.8092 36.1786 31.9264 36.4338 32.0417C36.6598 32.1436 36.8874 32.2425 37.1134 32.3444C37.3469 32.4498 37.5789 32.5596 37.8128 32.6634C38.1645 32.8187 38.5187 32.9661 38.8694 33.1234C39.3076 33.3203 39.7419 33.5266 40.1796 33.7249C40.61 33.9198 41.0418 34.1097 41.4736 34.3007C41.7372 34.4174 42.0023 34.5292 42.2655 34.6474C42.9446 34.9526 43.6223 35.2612 44.3014 35.5669C44.5566 35.6817 44.8153 35.789 45.0705 35.9047C45.6033 36.1451 46.134 36.39 46.6662 36.6309C46.9437 36.756 47.2237 36.8747 47.5012 36.9994C47.8301 37.1468 48.1575 37.2976 48.4865 37.445C48.5374 37.4678 48.5913 37.4871 48.6447 37.496C48.668 37.4999 48.7051 37.4792 48.7135 37.4589C48.7209 37.4411 48.7041 37.3975 48.6853 37.3852C48.6319 37.3505 48.572 37.3253 48.5137 37.2986C48.2377 37.1715 47.9612 37.0439 47.6847 36.9182C47.4512 36.8119 47.2172 36.708 46.9838 36.6032C46.7503 36.4983 46.5168 36.3934 46.2834 36.2891C46.0494 36.1847 45.8155 36.0803 45.582 35.976C45.348 35.8716 45.1146 35.7677 44.8806 35.6634C44.5081 35.4967 44.1357 35.3295 43.7632 35.1628C43.4927 35.0421 43.2216 34.9229 42.9515 34.8007C42.6815 34.6791 42.4134 34.5529 42.1423 34.4327C41.8129 34.2863 41.4805 34.1473 41.1511 33.9999C40.603 33.7541 40.057 33.5033 39.5099 33.2555C38.9915 33.0211 38.4732 32.7876 37.9548 32.5536C37.568 32.379 37.1812 32.2039 36.7939 32.0298C36.3848 31.8463 35.9753 31.6648 35.5667 31.4808C35.3184 31.3695 35.0716 31.2542 34.8233 31.1429C34.6042 31.0445 34.3841 30.95 34.1649 30.8516C33.9166 30.7403 33.6693 30.6265 33.421 30.5153C33.2162 30.4237 33.0105 30.3367 32.8057 30.2447C32.5425 30.127 32.2814 30.0053 32.0182 29.8871C31.7551 29.7693 31.4905 29.6551 31.2278 29.5369C31.0384 29.4513 30.8514 29.3593 30.662 29.2737C30.2024 29.0665 29.7414 28.8617 29.2819 28.6545C28.6325 28.3616 27.983 28.0678 27.3341 27.773C27.108 27.6701 26.8835 27.5638 26.6584 27.4584C26.6114 27.4401 26.5704 27.4154 26.5798 27.3501Z" fill="#F9FFFD" stroke="#F9FFFD"></path></svg>