<svg xmlns="http://www.w3.org/2000/svg" xmlns:xlink="http://www.w3.org/1999/xlink" width="512" height="512" x="0" y="0" viewBox="0 0 68 68" style="enable-background:new 0 0 512 512" xml:space="preserve" class=""><g><path d="M33.208 4.526a.75.75 0 0 0 .408-.979 4.75 4.75 0 0 1-.353-1.592c-.044-1.015-1.542-.91-1.498.067.032.721.188 1.426.464 2.095a.75.75 0 0 0 .979.409zM40.408 4.166a.75.75 0 0 0 .717-.53l.618-2.02a.75.75 0 0 0-1.435-.439l-.617 2.02a.75.75 0 0 0 .717.97zM48.049 6.911a5.24 5.24 0 0 0 1.72-1.5.75.75 0 0 0-1.21-.886 3.74 3.74 0 0 1-1.224 1.068.75.75 0 1 0 .714 1.318zM41.395 5.707c-1.068-.403-1.814-.571-2.603-.669-4.178-.497-8.602 1.515-11.01 5.02-2.442 3.556-2.768 8.51-.81 12.33 1.42 2.786 3.437 4.715 3.63 7.743.086 1.348.34 2.837 1.573 3.662.028.019.06.023.09.037l.04.075c-.293.604-.421 1.209-.28 1.866-.427-.233-.899-.356-1.356-.313-1.418.155-2.1 1.544-2.426 2.21-.482.97-.974 1.933-1.464 2.892-1.823 3.563-3.685 7.233-4.872 11.207-.419-.636-.977-.961-1.697-.955-.595.013-1.169.281-1.618.737-.426.1-5.217 1.948-5.317 1.986-.77.294-.564 1.45.268 1.45.245 0-.065.049 4.114-1.507-.404 1.837-.613 4.034-.29 5.93.362 2.131 1.428 4.169 3.17 5.373-1.234.44-2.516.914-3.142 1.105a.75.75 0 0 0 .438 1.436c.245-.075 4.794-1.649 4.96-1.8.719-.024 1.372-.312 1.825-.787 1.126.384 2.84.636 3.568.762 2.431.419 4.92.584 7.37.284 6.48-.792 11.158-5.36 11.71-8.42.08-.444.02-.862-.125-1.263-.047-.69-.46-1.363-1.453-1.814.58-.52.943-1.093 1.312-1.495 1.409-1.538 1.204-3.502-.13-4.444.815-1.458.251-3.046-.955-3.808 1.529-1.885-.01-3.867-2.038-4.007.163-.347.273-.769.145-1.285-.124-.546-.017-.532.192-.72.932-1.035.424-2.44-.165-2.32.622-.513.898-1.521.326-2.349l-.006-.006c.509-.297.97-.71 1.095-1.05.52-1.404.236-2.918.902-4.381.638-1.401 1.647-2.603 2.468-3.896 2.16-3.401 2.493-7.726.887-11.44-1.626-3.76-3.991-6.215-8.326-7.376zm-8.774 38.72c.291-.866.618-1.713.848-2.573.562.746 1.14 1.527 1.781 2.145.033.061.09.095.136.143-.992.443-2.137.994-3.227 1.332.116-.262.337-.674.462-1.047zm4.028-.868a.968.968 0 0 0-.277-.563c-1.003-.93-2.01-2.6-2.43-2.894a.534.534 0 0 1-.17-.277 3.986 3.986 0 0 0-.003-.466.556.556 0 0 1 .064-.152c.166-.256.14-.697-.198-.97a4.982 4.982 0 0 0-.19-.64c.022-.213.113-.422.243-.53a.75.75 0 0 0 .264-.675c-.03-.101.01-.417-.323-.66-.108-.077-.176-.301-.159-.547.015-.309.179-.636.337-.914l.003-.006c2.27.35 5.126.293 7.42.04.121.216.292.554.316.799.073.662-.384.465-.425 1.066.016.186-.118.467.286.817.265.23.37.69.16 1.067a.75.75 0 0 0-.3.36c-.227.571.263.683.189 1.233-.031.267-.13.28-.22.464a.75.75 0 0 0 .121.866c.033.034.075.05.111.077-.005.003-2.714 1.504-4.819 2.505zm-.042-18.485c.628.171 1.29.22 1.946.16-.037 2.603.222 5.195.488 7.734a32.5 32.5 0 0 1-2.384.025c-.238-2.942-.21-4.964-.05-7.919zm-8.3-3.368c-1.714-3.344-1.428-7.684.712-10.798 2.089-3.04 6.03-4.952 10.033-4.317 3.45.583 6.607 3.103 8.042 6.421.968 2.238 1.094 4.92.353 7.556-1.31 4.77-4.708 6.13-4.749 10.619-.004.496.007 1.192-.413 1.458-.312.043-.366.095-1.746.222-.277-2.635-.547-5.329-.478-7.999 1.971-.782 3.292-2.748 3.436-4.805.231-3.285-3.975-3.735-4.71 1.81-.08.616-.139 1.23-.177 1.847a3.874 3.874 0 0 1-1.931-.195c.136-6.079-3.932-5.928-3.814-3.11.066 1.596.94 3.103 2.276 3.995-.17 3.103-.246 5.264.006 8.502a14.416 14.416 0 0 1-2.097-.324c-.015-.012-.024-.03-.04-.04-.69-.463-.848-1.53-.91-2.513-.224-3.49-2.412-5.621-3.793-8.329zm11.85 1.431c.115-1.308.28-2.969 1.182-3.777.18-.16.344-.223.423-.223.476 0 .408 2.68-1.605 4zm-4.999-.73c-.652-.816-.86-1.828-.782-2.29.5.448.73 1.6.782 2.29zm9.88 20.65c-.13.902-2.28 2.018-3.032 2.556-.355.264-1.161.47-1.692.712a.75.75 0 1 0 .62 1.366c.566-.256 1.37-.427 1.956-.868.291-.206 1.148-.702 1.832-1.197.06.032.119.066.189.081.418.088.878.75.849 1.221-.082 1.31-.932 1.281-4.966 3.352-.696.357-.443 1.417.343 1.417.257 0-.013.087 4.632-2.232.757.239 1.034 1.318.125 2.31-.161.177-.323.38-.49.59-.86 1.084-.778.861-1.86 1.512-.438.264-.89.536-1.385.737-.759.31-.534 1.445.285 1.445.33 0 1.165-.484 1.45-.65.043.002.082.016.126.01.516-.052 1.736.357 1.623.886-.319 1.49-2 2.974-4.88 4.299-2.473 1.137-2.853 1.313-5.3 1.722-4.642.776-8.374.493-11.409-.87-.781-.345-1.458.683-.78 1.251.19.239.336.162.41.453.154.59-.538.933-1.162.865-.46-.052-.95-.293-1.456-.717-1.14-.953-1.928-2.428-2.221-4.152-.414-2.433.216-5.663.627-6.319.197-.313.5-.52.772-.525h.008c.386 0 .71.644.908 1.817.013.076.047.142.08.208l-.008.035a.75.75 0 0 0 1.469.305c1.22-5.867 4.15-10.821 6.887-16.347.32-.65.717-1.323 1.24-1.38.394-.032.906.278 1.148.982.035.101.084.164.198.589 0 .017.01.121.012.127.316 1.98-.288 3.214-.987 5.301-.106.317-.36.76-.505 1.148-.11.3-.396.67-.52.81a.75.75 0 0 0 .506 1.374c2.528-.15 8.811-3.42 9.093-3.613 1.117-.559 2.329-1.408 3.332-1.61l.197-.02c1.162-.147 1.803.562 1.736 1.019zM20.96 14.587l2.639 1.214a.75.75 0 0 0 .627-1.363l-2.64-1.214a.75.75 0 0 0-.626 1.363zM26.425 8.673c.643 0 .994-.77.555-1.255l-1.283-1.41a.75.75 0 0 0-1.11 1.008c1.184 1.2 1.282 1.657 1.838 1.657zM53.78 12.76a.75.75 0 1 0-.32-1.465 7.79 7.79 0 0 0-2.11.794c-.675.374-.407 1.406.365 1.406.435 0 .692-.434 2.066-.735zM54.503 20.711l-1.96-.127a.75.75 0 1 0-.097 1.496c.03.002 1.98.13 2.01.13a.75.75 0 0 0 .047-1.499z" fill="#2a1e2a" opacity="1" data-original="#000000" class=""></path><path d="M21.317 20.202a.75.75 0 0 0-.001 1.5l2.819.006a.75.75 0 0 0 .001-1.5l-2.819-.006z" fill="#2a1e2a" opacity="1" data-original="#000000" class=""></path></g></svg>